<svg xmlns="http://www.w3.org/2000/svg" xmlns:xlink="http://www.w3.org/1999/xlink" viewBox="0 0 112 160"><defs><style>.cls-1{fill:none;}.cls-2{fill:#61cdab;}.cls-11,.cls-17,.cls-3,.cls-4,.cls-6,.cls-8,.cls-9{isolation:isolate;}.cls-4,.cls-5{font-size:7.6px;font-family:Arial-BoldMT, Arial;font-weight:700;}.cls-10,.cls-11,.cls-12,.cls-17,.cls-4,.cls-5,.cls-6,.cls-7,.cls-8,.cls-9{fill:#fff;}.cls-6,.cls-7,.cls-8{font-size:4.56px;font-family:ArialNarrow-Italic, Arial Narrow;font-style:italic;}.cls-8{letter-spacing:-0.02em;}.cls-10,.cls-17,.cls-9{font-size:2.19px;}.cls-10,.cls-11,.cls-17,.cls-9{font-family:ArialMT, Arial;}.cls-11{font-size:2.47px;}.cls-13{clip-path:url(#clip-path);}.cls-14{fill:#d3d2d2;}.cls-15{clip-path:url(#clip-path-2);}.cls-16{opacity:0.2;}.cls-17{letter-spacing:-0.02em;}</style><clipPath id="clip-path"><rect class="cls-1" width="112" height="160"/></clipPath><clipPath id="clip-path-2"><rect class="cls-1" x="84.35" y="9.96" width="22.48" height="5.22"/></clipPath></defs><title>cover</title><g id="Слой_2" data-name="Слой 2"><g id="svg2"><path id="path13517" class="cls-2" d="M0,160H112V0H0Z"/><g id="text13519" class="cls-3"><text class="cls-4" transform="translate(8.85 54.86) scale(0.99 1)">П</text><text class="cls-4" transform="translate(14.51 54.86) scale(0.99 1)">р</text><text class="cls-4" transform="translate(19.59 54.86) scale(0.99 1)">и</text><text class="cls-4" transform="translate(24.37 54.86) scale(0.99 1)">н</text><text class="cls-4" transform="translate(29.09 54.86) scale(0.99 1)">ц</text><text class="cls-4" transform="translate(33.93 54.86) scale(0.99 1)">и</text><text class="cls-4" transform="translate(38.71 54.86) scale(0.99 1)">п</text><text class="cls-4" transform="translate(43.39 54.86) scale(0.99 1)">ы</text><text class="cls-5" transform="translate(49.82 54.86) scale(0.99 1)"> </text><text class="cls-4" transform="translate(8.85 63.98) scale(0.99 1)">ф</text><text class="cls-4" transform="translate(15.65 63.98) scale(0.99 1)">а</text><text class="cls-4" transform="translate(20.1 63.98) scale(0.99 1)">р</text><text class="cls-4" transform="translate(25.18 63.98) scale(0.99 1)">м</text><text class="cls-4" transform="translate(30.72 63.98) scale(0.99 1)">а</text><text class="cls-4" transform="translate(35.18 63.98) scale(0.99 1)">к</text><text class="cls-4" transform="translate(39.55 63.98) scale(0.99 1)">о</text><text class="cls-4" transform="translate(44.4 63.98) scale(0.99 1)">л</text><text class="cls-4" transform="translate(49.14 63.98) scale(0.99 1)">о</text><text class="cls-4" transform="translate(54.14 63.98) scale(0.99 1)">г</text><text class="cls-4" transform="translate(57.71 63.98) scale(0.99 1)">и</text><text class="cls-4" transform="translate(62.49 63.98) scale(0.99 1)">и</text></g><g id="text13526" class="cls-3"><text class="cls-6" transform="translate(9.49 74.75) scale(0.99 1)">В</text><text class="cls-6" transform="translate(12.48 74.75) scale(0.99 1)">в</text><text class="cls-6" transform="translate(14.84 74.75) scale(0.99 1)">е</text><text class="cls-6" transform="translate(17.24 74.75) scale(0.99 1)">д</text><text class="cls-6" transform="translate(19.81 74.75) scale(0.99 1)">е</text><text class="cls-6" transform="translate(22.22 74.75) scale(0.99 1)">н</text><text class="cls-6" transform="translate(24.89 74.75) scale(0.99 1)">и</text><text class="cls-6" transform="translate(27.51 74.75) scale(0.99 1)">е</text></g><g id="text13531" class="cls-3"><text class="cls-6" transform="translate(9.49 38.71) scale(0.99 1)">D</text><text class="cls-6" transform="translate(12.75 38.71) scale(0.99 1)">r</text><text class="cls-6" transform="translate(14.2 38.71) scale(0.99 1)">.</text><text class="cls-6" transform="translate(15.49 38.71) scale(0.99 1)"> </text><text class="cls-6" transform="translate(16.78 38.71) scale(0.99 1)">C</text><text class="cls-6" transform="translate(19.89 38.71) scale(0.99 1)">a</text><text class="cls-6" transform="translate(22.31 38.71) scale(0.99 1)">r</text><text class="cls-6" transform="translate(24.25 38.71) scale(0.99 1)">l</text><text class="cls-6" transform="translate(25.55 38.71) scale(0.99 1)"> </text><text class="cls-6" transform="translate(26.84 38.71) scale(0.99 1)">R</text><text class="cls-6" transform="translate(29.9 38.71) scale(0.99 1)">o</text><text class="cls-6" transform="translate(32.34 38.71) scale(0.99 1)">s</text><text class="cls-6" transform="translate(34.42 38.71) scale(0.99 1)">o</text><text class="cls-6" transform="translate(36.87 38.71) scale(0.99 1)">w</text><text class="cls-7" transform="translate(39.54 38.71) scale(0.99 1)"> </text><text class="cls-8" transform="translate(9.49 44.18) scale(0.99 1)">P</text><text class="cls-6" transform="translate(12.22 44.18) scale(0.99 1)">r</text><text class="cls-6" transform="translate(14.17 44.18) scale(0.99 1)">o</text><text class="cls-6" transform="translate(16.61 44.18) scale(0.99 1)">f</text><text class="cls-6" transform="translate(17.96 44.18) scale(0.99 1)">.</text><text class="cls-6" transform="translate(19.25 44.18) scale(0.99 1)"> </text><text class="cls-6" transform="translate(20.54 44.18) scale(0.99 1)">G</text><text class="cls-6" transform="translate(23.79 44.18) scale(0.99 1)">a</text><text class="cls-6" transform="translate(26.21 44.18) scale(0.99 1)">r</text><text class="cls-6" transform="translate(28.15 44.18) scale(0.99 1)">y</text><text class="cls-6" transform="translate(30.44 44.18) scale(0.99 1)"> </text><text class="cls-6" transform="translate(31.73 44.18) scale(0.99 1)">S</text><text class="cls-6" transform="translate(34.51 44.18) scale(0.99 1)">t</text><text class="cls-6" transform="translate(36.15 44.18) scale(0.99 1)">r</text><text class="cls-6" transform="translate(38.09 44.18) scale(0.99 1)">i</text><text class="cls-6" transform="translate(39.39 44.18) scale(0.99 1)">c</text><text class="cls-6" transform="translate(41.66 44.18) scale(0.99 1)">h</text><text class="cls-6" transform="translate(44.28 44.18) scale(0.99 1)">a</text><text class="cls-6" transform="translate(46.7 44.18) scale(0.99 1)">r</text><text class="cls-6" transform="translate(48.64 44.18) scale(0.99 1)">t</text><text class="cls-6" transform="translate(50.27 44.18) scale(0.99 1)">z</text></g><g id="text13537" class="cls-3"><text class="cls-9" transform="translate(37.28 146.12) scale(0.99 1)">Т</text><text class="cls-9" transform="translate(38.46 146.12) scale(0.99 1)">а</text><text class="cls-9" transform="translate(39.7 146.12) scale(0.99 1)">г</text><text class="cls-9" transform="translate(40.7 146.12) scale(0.99 1)">и</text><text class="cls-9" transform="translate(42.06 146.12) scale(0.99 1)">р</text><text class="cls-9" transform="translate(43.49 146.12) scale(0.99 1)">о</text><text class="cls-9" transform="translate(44.88 146.12) scale(0.99 1)">в</text><text class="cls-9" transform="translate(46.13 146.12) scale(0.99 1)">а</text><text class="cls-9" transform="translate(47.37 146.12) scale(0.99 1)"> </text><text class="cls-9" transform="translate(48.02 146.12) scale(0.99 1)">К</text><text class="cls-9" transform="translate(49.57 146.12) scale(0.99 1)">а</text><text class="cls-9" transform="translate(50.81 146.12) scale(0.99 1)">р</text><text class="cls-9" transform="translate(52.24 146.12) scale(0.99 1)">и</text><text class="cls-9" transform="translate(53.6 146.12) scale(0.99 1)">н</text><text class="cls-9" transform="translate(54.95 146.12) scale(0.99 1)">а</text><text class="cls-10" transform="translate(56.15 146.12) scale(0.99 1)"> </text><text class="cls-9" transform="translate(37.28 148.75) scale(0.99 1)">Я</text><text class="cls-9" transform="translate(38.84 148.75) scale(0.99 1)">р</text><text class="cls-9" transform="translate(40.27 148.75) scale(0.99 1)">и</text><text class="cls-9" transform="translate(41.63 148.75) scale(0.99 1)">к</text><text class="cls-9" transform="translate(42.83 148.75) scale(0.99 1)"> </text><text class="cls-9" transform="translate(43.48 148.75) scale(0.99 1)">А</text><text class="cls-9" transform="translate(45.19 148.75) scale(0.99 1)">р</text><text class="cls-9" transform="translate(46.62 148.75) scale(0.99 1)">а</text><text class="cls-9" transform="translate(47.86 148.75) scale(0.99 1)">к</text><text class="cls-9" transform="translate(49.02 148.75) scale(0.99 1)">е</text><text class="cls-9" transform="translate(50.29 148.75) scale(0.99 1)">л</text><text class="cls-9" transform="translate(51.61 148.75) scale(0.99 1)">я</text><text class="cls-9" transform="translate(52.85 148.75) scale(0.99 1)">н</text><text class="cls-9" transform="translate(54.2 148.75) scale(0.99 1)">ц</text></g><g id="text13543" class="cls-3"><text class="cls-11" transform="translate(37.28 141.88) scale(0.99 1)">Р</text><text class="cls-11" transform="translate(38.91 141.88) scale(0.99 1)">е</text><text class="cls-11" transform="translate(40.39 141.88) scale(0.99 1)">д</text><text class="cls-11" transform="translate(41.95 141.88) scale(0.99 1)">а</text><text class="cls-11" transform="translate(43.39 141.88) scale(0.99 1)">к</text><text class="cls-11" transform="translate(44.84 141.88) scale(0.99 1)">т</text><text class="cls-11" transform="translate(46.02 141.88) scale(0.99 1)">о</text><text class="cls-11" transform="translate(47.62 141.88) scale(0.99 1)">р</text><text class="cls-11" transform="translate(49.26 141.88) scale(0.99 1)">ы</text><text class="cls-11" transform="translate(51.21 141.88) scale(0.99 1)">:</text></g><g id="text13547" class="cls-3"><text class="cls-9" transform="translate(9.49 146.12) scale(0.99 1)">В</text><text class="cls-9" transform="translate(11.05 146.12) scale(0.99 1)">а</text><text class="cls-9" transform="translate(12.3 146.12) scale(0.99 1)">л</text><text class="cls-9" transform="translate(13.62 146.12) scale(0.99 1)">е</text><text class="cls-9" transform="translate(14.88 146.12) scale(0.99 1)">р</text><text class="cls-9" transform="translate(16.31 146.12) scale(0.99 1)">и</text><text class="cls-9" transform="translate(17.67 146.12) scale(0.99 1)">я</text><text class="cls-9" transform="translate(18.91 146.12) scale(0.99 1)"> </text><text class="cls-9" transform="translate(19.56 146.12) scale(0.99 1)">Г</text><text class="cls-9" transform="translate(20.51 146.12) scale(0.99 1)">а</text><text class="cls-9" transform="translate(21.76 146.12) scale(0.99 1)">л</text><text class="cls-9" transform="translate(23.08 146.12) scale(0.99 1)">к</text><text class="cls-9" transform="translate(24.28 146.12) scale(0.99 1)">и</text><text class="cls-9" transform="translate(25.64 146.12) scale(0.99 1)">н</text><text class="cls-9" transform="translate(26.99 146.12) scale(0.99 1)">а</text><text class="cls-10" transform="translate(28.19 146.12) scale(0.99 1)"> </text><text class="cls-9" transform="translate(9.49 148.75) scale(0.99 1)">И</text><text class="cls-9" transform="translate(11.15 148.75) scale(0.99 1)">л</text><text class="cls-9" transform="translate(12.47 148.75) scale(0.99 1)">ь</text><text class="cls-9" transform="translate(13.61 148.75) scale(0.99 1)">я</text><text class="cls-9" transform="translate(14.86 148.75) scale(0.99 1)"> </text><text class="cls-9" transform="translate(15.51 148.75) scale(0.99 1)">У</text><text class="cls-9" transform="translate(16.95 148.75) scale(0.99 1)">с</text><text class="cls-9" transform="translate(18.18 148.75) scale(0.99 1)">о</text><text class="cls-9" transform="translate(19.53 148.75) scale(0.99 1)">л</text><text class="cls-9" transform="translate(20.85 148.75) scale(0.99 1)">ь</text><text class="cls-9" transform="translate(21.99 148.75) scale(0.99 1)">ц</text><text class="cls-9" transform="translate(23.35 148.75) scale(0.99 1)">е</text><text class="cls-9" transform="translate(24.61 148.75) scale(0.99 1)">в</text></g><g id="text13553" class="cls-3"><text class="cls-11" transform="translate(9.49 141.88) scale(0.99 1)">П</text><text class="cls-11" transform="translate(11.33 141.88) scale(0.99 1)">е</text><text class="cls-11" transform="translate(12.81 141.88) scale(0.99 1)">р</text><text class="cls-11" transform="translate(14.45 141.88) scale(0.99 1)">е</text><text class="cls-11" transform="translate(15.92 141.88) scale(0.99 1)">в</text><text class="cls-11" transform="translate(17.37 141.88) scale(0.99 1)">о</text><text class="cls-11" transform="translate(18.95 141.88) scale(0.99 1)">д</text><text class="cls-11" transform="translate(20.51 141.88) scale(0.99 1)">ч</text><text class="cls-11" transform="translate(21.97 141.88) scale(0.99 1)">и</text><text class="cls-11" transform="translate(23.52 141.88) scale(0.99 1)">к</text><text class="cls-11" transform="translate(24.97 141.88) scale(0.99 1)">и</text><text class="cls-11" transform="translate(26.52 141.88) scale(0.99 1)">:</text></g><path id="path13558" class="cls-12" d="M9.49,143.17h75.4V143H9.49Z"/><g id="g13515"><g class="cls-13"><g id="g13560"><g id="g13564"><path id="path13567" class="cls-12" d="M23.23,9.75V11h-.3l0-.91V10l0,.14-.24.86h-.27l-.23-.82L22.11,10c0,.1,0,.12,0,.24l0,.8h-.31V9.75h.46l.19.72,0,.2,0-.16.2-.76Z"/></g><g id="g13569"><path id="path13571" class="cls-12" d="M23.82,10.63s-.12,0-.12.12a.1.1,0,0,0,.1.1.18.18,0,0,0,.1,0c.09-.06.09-.14.1-.24Zm-.35-.28a.26.26,0,0,1,.1-.21.48.48,0,0,1,.31-.08c.11,0,.39,0,.39.27v.55c0,.1,0,.12,0,.15H24v-.09a.44.44,0,0,1-.29.11.28.28,0,0,1-.31-.29.3.3,0,0,1,.2-.27,2.41,2.41,0,0,1,.37-.09v-.05s0-.12-.11-.12-.14.08-.15.11Z"/></g><g id="g13573"><path id="path13575" class="cls-12" d="M24.56,10.71a.4.4,0,0,0,.27.13c.07,0,.17,0,.17-.09a.06.06,0,0,0,0-.05.59.59,0,0,0-.16,0l-.13,0a.35.35,0,0,1-.16-.08.26.26,0,0,1-.07-.18c0-.16.13-.32.39-.32a.68.68,0,0,1,.42.14l-.17.16a.39.39,0,0,0-.23-.09c-.11,0-.13,0-.13.07s.06.07.15.08.41.08.41.31-.22.33-.44.33a.61.61,0,0,1-.45-.18Z"/></g><g id="g13577"><path id="path13579" class="cls-12" d="M25.5,10.71a.4.4,0,0,0,.27.13c.07,0,.17,0,.17-.09a.06.06,0,0,0,0-.05.59.59,0,0,0-.16,0l-.13,0a.35.35,0,0,1-.16-.08.26.26,0,0,1-.07-.18c0-.16.13-.32.39-.32a.68.68,0,0,1,.42.14l-.17.16a.39.39,0,0,0-.23-.09c-.11,0-.13,0-.13.07s.06.07.15.08.41.08.41.31S26,11,25.78,11a.61.61,0,0,1-.45-.18Z"/></g><g id="g13581"><path id="path13583" class="cls-12" d="M26.73,10.63s-.12,0-.12.12a.1.1,0,0,0,.1.1.18.18,0,0,0,.1,0c.09-.06.09-.14.1-.24Zm-.35-.28a.26.26,0,0,1,.1-.21.48.48,0,0,1,.31-.08c.11,0,.39,0,.39.27v.55c0,.1,0,.12,0,.15h-.27v-.09a.44.44,0,0,1-.29.11.28.28,0,0,1-.31-.29.3.3,0,0,1,.2-.27,2.4,2.4,0,0,1,.37-.09v-.05s0-.12-.11-.12-.14.08-.15.11Z"/></g><g id="g13585"><path id="path13589" class="cls-12" d="M28.24,10.8a.54.54,0,0,1-.15.17.46.46,0,0,1-.27.08.45.45,0,0,1-.46-.49.46.46,0,0,1,.47-.51.45.45,0,0,1,.4.23l-.2.12a.23.23,0,0,0-.08-.1.18.18,0,0,0-.1,0c-.15,0-.2.17-.2.29s.06.28.21.28a.18.18,0,0,0,.14-.06.2.2,0,0,0,0-.08Z"/></g><g id="g13591"><path id="path13593" class="cls-12" d="M28.56,9.75v.43a.36.36,0,0,1,.27-.12.31.31,0,0,1,.2.07.33.33,0,0,1,.1.28V11h-.27v-.49a.47.47,0,0,0,0-.14.13.13,0,0,0-.13-.09.14.14,0,0,0-.11.05.37.37,0,0,0,0,.21V11h-.28V9.75Z"/></g><g id="g13595"><path id="path13597" class="cls-12" d="M29.92,10.08h.28V11h-.28v-.09a.26.26,0,0,1-.09.07.38.38,0,0,1-.18,0,.28.28,0,0,1-.24-.1.42.42,0,0,1-.06-.28v-.59h.28v.59a.19.19,0,0,0,0,.11.14.14,0,0,0,.11,0,.18.18,0,0,0,.1,0,.14.14,0,0,0,.06-.13Z"/></g><g id="g13599"><path id="path13601" class="cls-12" d="M30.49,10.71a.4.4,0,0,0,.27.13c.07,0,.17,0,.17-.09a.06.06,0,0,0,0-.05.58.58,0,0,0-.16,0l-.13,0a.35.35,0,0,1-.16-.08.26.26,0,0,1-.07-.18c0-.16.13-.32.39-.32a.68.68,0,0,1,.42.14l-.17.16a.39.39,0,0,0-.23-.09c-.11,0-.13,0-.13.07s.06.07.15.08.41.08.41.31S31,11,30.77,11a.61.61,0,0,1-.45-.18Z"/></g><g id="g13603"><path id="path13605" class="cls-12" d="M32,10.44a.23.23,0,0,0-.05-.13.19.19,0,0,0-.13-.05.19.19,0,0,0-.14.06.25.25,0,0,0-.06.12Zm.27.35a.75.75,0,0,1-.11.14.51.51,0,0,1-.35.13.45.45,0,0,1-.47-.49.47.47,0,0,1,.48-.52.45.45,0,0,1,.34.14.64.64,0,0,1,.13.42H31.6a.21.21,0,0,0,.21.24.25.25,0,0,0,.24-.17Z"/></g><g id="g13607"><path id="path13609" class="cls-12" d="M32.46,9.81h.27v.29h.18v.17h-.18v.43c0,.06,0,.11.07.11h.1V11h-.15a.28.28,0,0,1-.26-.09.37.37,0,0,1,0-.21v-.46h-.14V10.1h.14Z"/></g><g id="g13611"><path id="path13615" class="cls-12" d="M33,9.81h.27v.29h.18v.17h-.18v.43c0,.06,0,.11.07.11h.1V11h-.15a.28.28,0,0,1-.26-.09.37.37,0,0,1,0-.21v-.46h-.14V10.1H33Z"/></g><g id="g13617"><path id="path13619" class="cls-12" d="M33.63,10.71a.4.4,0,0,0,.27.13c.07,0,.17,0,.17-.09a.06.06,0,0,0,0-.05.59.59,0,0,0-.16,0l-.13,0a.35.35,0,0,1-.16-.08.26.26,0,0,1-.07-.18c0-.16.13-.32.39-.32a.68.68,0,0,1,.42.14l-.17.16a.39.39,0,0,0-.23-.09c-.11,0-.13,0-.13.07s.06.07.15.08.41.08.41.31-.22.33-.44.33a.61.61,0,0,1-.45-.18Z"/></g><path id="path13621" class="cls-12" d="M22.16,13h-.31V11.76h.31Z"/><g id="g13623"><path id="path13627" class="cls-12" d="M22.68,12.18a.27.27,0,0,1,.09-.07.45.45,0,0,1,.17,0,.35.35,0,0,1,.17,0c.1.05.12.14.12.28V13H23V12.5a.38.38,0,0,0,0-.14.13.13,0,0,0-.12-.07c-.14,0-.14.12-.14.24V13h-.28v-.94h.28Z"/></g><g id="g13629"><path id="path13631" class="cls-12" d="M23.53,12.72a.4.4,0,0,0,.27.13c.07,0,.17,0,.17-.09a.06.06,0,0,0,0-.05.59.59,0,0,0-.16,0l-.13,0a.35.35,0,0,1-.16-.08.26.26,0,0,1-.07-.18c0-.16.13-.32.39-.32a.68.68,0,0,1,.42.14l-.17.16a.39.39,0,0,0-.23-.09c-.11,0-.13,0-.13.07s.06.06.15.08.41.08.41.31-.22.33-.44.33a.61.61,0,0,1-.45-.18Z"/></g><g id="g13633"><path id="path13635" class="cls-12" d="M24.45,11.82h.27v.29h.18v.17h-.18v.43c0,.06,0,.11.07.11h.1V13h-.14a.28.28,0,0,1-.26-.09.37.37,0,0,1,0-.21v-.46h-.14v-.17h.14Z"/></g><path id="path13637" class="cls-12" d="M25.05,12.09h.27V13h-.27Zm0-.33h.27V12h-.27Z"/><g id="g13639"><path id="path13641" class="cls-12" d="M25.61,11.82h.27v.29h.18v.17h-.18v.43c0,.06,0,.11.07.11H26V13H25.9a.28.28,0,0,1-.26-.09.37.37,0,0,1,0-.21v-.46h-.14v-.17h.14Z"/></g><g id="g13643"><path id="path13645" class="cls-12" d="M26.77,12.09H27V13h-.28v-.09a.25.25,0,0,1-.09.07.38.38,0,0,1-.18,0,.28.28,0,0,1-.24-.1.42.42,0,0,1-.06-.28v-.59h.28v.59a.19.19,0,0,0,0,.11.14.14,0,0,0,.11,0,.18.18,0,0,0,.09,0,.14.14,0,0,0,.06-.13Z"/></g><g id="g13647"><path id="path13649" class="cls-12" d="M27.32,11.82h.27v.29h.18v.17h-.18v.43c0,.06,0,.11.07.11h.1V13h-.15a.28.28,0,0,1-.26-.09.37.37,0,0,1,0-.21v-.46h-.14v-.17h.14Z"/></g><g id="g13651"><path id="path13653" class="cls-12" d="M28.52,12.45a.23.23,0,0,0-.05-.13.19.19,0,0,0-.13-.05.19.19,0,0,0-.14.06.25.25,0,0,0-.06.12Zm.27.35a.73.73,0,0,1-.11.14.51.51,0,0,1-.35.13.45.45,0,0,1-.47-.49.47.47,0,0,1,.48-.52.45.45,0,0,1,.34.14.64.64,0,0,1,.13.42h-.67a.21.21,0,0,0,.21.24.25.25,0,0,0,.24-.17Z"/></g><g id="g13655"><path id="path13657" class="cls-12" d="M29.71,12.38a.35.35,0,0,0,0,.18c0,.15.07.28.23.28s.22-.12.22-.27a.32.32,0,0,0-.08-.24.2.2,0,0,0-.16-.05.19.19,0,0,0-.16.09m.68.19a.5.5,0,1,1-.47-.5.47.47,0,0,1,.47.5"/></g><g id="g13659"><path id="path13661" class="cls-12" d="M30.61,12a.28.28,0,0,1,0-.16.29.29,0,0,1,.24-.1l.16,0V12H31c-.1,0-.11,0-.11.15h.18v.17h-.18V13h-.27v-.75h-.15v-.17h.15Z"/></g><g id="g13663"><path id="path13665" class="cls-12" d="M21.49,13.79h1V14h-.33v1h-.32V14h-.33Z"/></g><g id="g13667"><path id="path13669" class="cls-12" d="M23.06,14.48a.23.23,0,0,0-.05-.13.19.19,0,0,0-.13-.05.19.19,0,0,0-.14.06.25.25,0,0,0-.06.12Zm.27.35a.74.74,0,0,1-.11.14.51.51,0,0,1-.35.13.45.45,0,0,1-.47-.49.47.47,0,0,1,.48-.52.45.45,0,0,1,.34.14.64.64,0,0,1,.13.42h-.67a.21.21,0,0,0,.21.24.25.25,0,0,0,.24-.17Z"/></g><g id="g13671"><path id="path13677" class="cls-12" d="M24.32,14.84a.54.54,0,0,1-.15.17.46.46,0,0,1-.27.08.45.45,0,0,1-.46-.49.46.46,0,0,1,.47-.51.45.45,0,0,1,.4.23l-.2.12a.23.23,0,0,0-.08-.1.18.18,0,0,0-.1,0c-.15,0-.2.17-.2.29s.06.28.21.28a.18.18,0,0,0,.14-.06.2.2,0,0,0,0-.08Z"/></g><g id="g13679"><path id="path13682" class="cls-12" d="M24.64,13.79v.43a.36.36,0,0,1,.27-.12.31.31,0,0,1,.2.07.33.33,0,0,1,.1.28v.62h-.27v-.49a.46.46,0,0,0,0-.14.13.13,0,0,0-.13-.09.14.14,0,0,0-.11.05.37.37,0,0,0,0,.21v.47h-.28V13.79Z"/></g><g id="g13685"><path id="path13687" class="cls-12" d="M25.73,14.21a.27.27,0,0,1,.09-.07.45.45,0,0,1,.17,0,.35.35,0,0,1,.17,0c.1.05.12.14.12.28v.65H26v-.53a.38.38,0,0,0,0-.14.13.13,0,0,0-.12-.07c-.15,0-.15.12-.15.24v.51h-.28v-.94h.28Z"/></g><g id="g13689"><path id="path13691" class="cls-12" d="M26.79,14.41a.34.34,0,0,0,0,.18c0,.15.07.28.23.28s.22-.12.22-.27a.32.32,0,0,0-.08-.24.2.2,0,0,0-.16-.05.19.19,0,0,0-.16.09m.68.19a.5.5,0,1,1-.47-.5.47.47,0,0,1,.47.5"/></g><path id="path13693" class="cls-12" d="M27.92,15.07h-.28V13.79h.28Z"/><g id="g13695"><path id="path13697" class="cls-12" d="M28.43,14.41a.34.34,0,0,0,0,.18c0,.15.07.28.23.28s.22-.12.22-.27a.32.32,0,0,0-.08-.24.2.2,0,0,0-.16-.05.19.19,0,0,0-.16.09m.68.19a.5.5,0,1,1-.47-.5.47.47,0,0,1,.47.5"/></g><g id="g13699"><path id="path13701" class="cls-12" d="M29.51,14.57c0,.08,0,.24.18.24s.17-.11.17-.24a.4.4,0,0,0,0-.18.16.16,0,0,0-.15-.07c-.13,0-.16.12-.16.25m.35.37a.4.4,0,0,1-.25.08A.38.38,0,0,1,29.4,15a.44.44,0,0,1-.17-.39.41.41,0,0,1,.4-.46.32.32,0,0,1,.25.1v-.09h.26V15a.31.31,0,0,1-.14.3.67.67,0,0,1-.32.07.51.51,0,0,1-.36-.12.29.29,0,0,1-.07-.22h.28a.14.14,0,0,0,.08.14l.09,0c.17,0,.17-.1.17-.18Z"/></g><g id="g13703"><path id="path13705" class="cls-12" d="M31.14,14.12l-.33,1a.47.47,0,0,1-.09.17.24.24,0,0,1-.2.08h-.2v-.22h.1s.11,0,.11-.07a.26.26,0,0,0,0-.07l-.28-.91h.29l.15.68.15-.68Z"/></g><path id="path13707" class="cls-12" d="M14.91,9.77H16v1.06H14.91Z"/><path id="path13709" class="cls-12" d="M16.72,11.45h1.11v3.62H16.72Z"/><path id="path13711" class="cls-12" d="M9.49,9.77H10.6v5.3H9.49Z"/><path id="path13713" class="cls-12" d="M13.11,9.77h1.11v5.3H13.11Z"/><path id="path13715" class="cls-12" d="M11.3,9.77h1.11v3.62H11.3Z"/><path id="path13717" class="cls-12" d="M16.72,9.77h2.92v1.06H16.72Z"/><path id="path13719" class="cls-14" d="M14.92,11.44H16v3.62H14.92Z"/><g id="g13562"><g id="g13721"><g id="g13725"><g class="cls-15"><g id="g13727" class="cls-16"><g id="g13729"><path id="path13731" class="cls-12" d="M93.45,11.91a.17.17,0,0,0-.17-.17h-1a.17.17,0,0,0-.17.17V13h.29v1.25h.79V13h.29Z"/></g><g id="g13733"><path id="path13735" class="cls-12" d="M92.76,10.88a.36.36,0,1,1-.36.36.36.36,0,0,1,.36-.36"/></g><g id="g13737"><path id="path13739" class="cls-12" d="M92.76,10.43a2,2,0,0,1,1.48.62,2,2,0,0,1,.62,1.5,2,2,0,0,1-.6,1.48,2,2,0,0,1-1.49.63A2,2,0,0,1,91.28,14a2,2,0,0,1-.62-1.49,2.07,2.07,0,0,1,.63-1.5,2,2,0,0,1,1.47-.62m0-.46a2.43,2.43,0,0,0-1.8.75,2.54,2.54,0,0,0-.76,1.83A2.5,2.5,0,0,0,91,14.37a2.45,2.45,0,0,0,1.8.76,2.51,2.51,0,0,0,1.83-.77,2.46,2.46,0,0,0,.73-1.82,2.51,2.51,0,0,0-.74-1.83A2.46,2.46,0,0,0,92.75,10"/></g><g id="g13741"><path id="path13744" class="cls-12" d="M104.27,10.43a2,2,0,0,1,1.48.62,2,2,0,0,1,.61,1.5,2,2,0,0,1-.6,1.48,2,2,0,0,1-1.49.63,2,2,0,0,1-1.48-.63,2,2,0,0,1-.62-1.49,2.07,2.07,0,0,1,.63-1.5,2,2,0,0,1,1.47-.62m0-.47a2.43,2.43,0,0,0-1.8.75,2.54,2.54,0,0,0-.76,1.83,2.5,2.5,0,0,0,.76,1.82,2.45,2.45,0,0,0,1.8.76,2.51,2.51,0,0,0,1.83-.77,2.47,2.47,0,0,0,.73-1.82,2.51,2.51,0,0,0-.74-1.83,2.46,2.46,0,0,0-1.82-.75"/></g><g id="g13746"><path id="path13748" class="cls-12" d="M103.13,12.18a1.09,1.09,0,0,1,1.12-1,1.29,1.29,0,0,1,1.31,1.4A1.31,1.31,0,0,1,104.24,14a1.1,1.1,0,0,1-1.13-1h.64c0,.35.24.47.56.47s.6-.34.6-.86-.2-.84-.59-.84a.51.51,0,0,0-.57.46h.19l-.51.51-.51-.51Z"/></g><g id="g13750"><path id="path13752" class="cls-12" d="M98.52,10.43A2,2,0,0,0,97,11a2.39,2.39,0,0,0-.28.35l1,.44a.7.7,0,0,1,.66-.46V11h.29v.4a1.1,1.1,0,0,1,.64.24L99,12a.77.77,0,0,0-.44-.15c-.13,0-.31,0-.31.2a.1.1,0,0,0,0,.07l.33.15.22.1.41.18,1.31.59a2.28,2.28,0,0,0,.06-.55A2,2,0,0,0,100,11a2,2,0,0,0-1.48-.62m-2,1.42a2.08,2.08,0,0,0-.11.69A2,2,0,0,0,97,14a2,2,0,0,0,1.48.63A2,2,0,0,0,100,14a2,2,0,0,0,.35-.45l-1-.43a.74.74,0,0,1-.7.58v.4H98.4v-.4a1.21,1.21,0,0,1-.78-.31L98,13a.77.77,0,0,0,.57.23c.15,0,.32-.06.32-.26a.19.19,0,0,0-.07-.16l-.24-.11-.3-.14-.41-.18Zm2-1.89a2.46,2.46,0,0,1,1.82.75,2.51,2.51,0,0,1,.74,1.83,2.47,2.47,0,0,1-.73,1.82,2.51,2.51,0,0,1-1.83.77,2.45,2.45,0,0,1-1.8-.76A2.5,2.5,0,0,1,96,12.55a2.54,2.54,0,0,1,.76-1.83,2.43,2.43,0,0,1,1.8-.75"/></g><g id="g13754"><path id="path13756" class="cls-12" d="M88,12.35a.3.3,0,0,0-.28-.21q-.35,0-.35.46t.35.46a.32.32,0,0,0,.31-.22l.32.17a.72.72,0,0,1-.67.4.73.73,0,0,1-.55-.21.93.93,0,0,1,0-1.17.78.78,0,0,1,1.21.16Zm-1.47,0a.31.31,0,0,0-.29-.21q-.34,0-.34.46t.34.46a.33.33,0,0,0,.32-.22l.31.17a.72.72,0,0,1-.67.4.73.73,0,0,1-.55-.21.81.81,0,0,1-.21-.59.8.8,0,0,1,.21-.59.72.72,0,0,1,.53-.22.71.71,0,0,1,.68.38Zm-1.1-1.25a2.07,2.07,0,0,0-.63,1.5,2,2,0,0,0,.62,1.49,2,2,0,0,0,1.48.63,2,2,0,0,0,1.49-.63A2,2,0,0,0,89,12.6a2.06,2.06,0,0,0-.61-1.5,2,2,0,0,0-1.48-.62,2,2,0,0,0-1.47.62m3.28-.34a2.51,2.51,0,0,1,.74,1.83,2.47,2.47,0,0,1-.73,1.82,2.51,2.51,0,0,1-1.83.77,2.44,2.44,0,0,1-1.8-.76,2.5,2.5,0,0,1-.75-1.82,2.54,2.54,0,0,1,.75-1.83A2.42,2.42,0,0,1,86.9,10a2.46,2.46,0,0,1,1.82.75"/></g></g></g></g></g></g></g><g id="text13759" class="cls-3"><text class="cls-9" transform="translate(84.29 147.76) scale(0.99 1)">П</text><text class="cls-9" transform="translate(85.91 147.76) scale(0.99 1)">е</text><text class="cls-9" transform="translate(87.18 147.76) scale(0.99 1)">р</text><text class="cls-9" transform="translate(88.6 147.76) scale(0.99 1)">е</text><text class="cls-9" transform="translate(89.87 147.76) scale(0.99 1)">в</text><text class="cls-9" transform="translate(91.12 147.76) scale(0.99 1)">о</text><text class="cls-9" transform="translate(92.46 147.76) scale(0.99 1)">д</text><text class="cls-9" transform="translate(93.78 147.76) scale(0.99 1)"> </text><text class="cls-9" transform="translate(94.43 147.76) scale(0.99 1)">л</text><text class="cls-9" transform="translate(95.75 147.76) scale(0.99 1)">е</text><text class="cls-9" transform="translate(97.02 147.76) scale(0.99 1)">к</text><text class="cls-9" transform="translate(98.22 147.76) scale(0.99 1)">ц</text><text class="cls-9" transform="translate(99.58 147.76) scale(0.99 1)">и</text><text class="cls-9" transform="translate(100.94 147.76) scale(0.99 1)">й</text><text class="cls-9" transform="translate(102.31 147.76) scale(0.99 1)"> </text><text class="cls-9" transform="translate(102.95 147.76) scale(0.99 1)">M</text><text class="cls-9" transform="translate(104.83 147.76) scale(0.99 1)">I</text><text class="cls-17" transform="translate(105.43 147.76) scale(0.99 1)">T</text><text class="cls-10" transform="translate(106.83 147.76) scale(0.99 1)"> </text><text class="cls-9" transform="translate(88.81 150.39) scale(0.99 1)">н</text><text class="cls-9" transform="translate(90.16 150.39) scale(0.99 1)">а</text><text class="cls-9" transform="translate(91.4 150.39) scale(0.99 1)"> </text><text class="cls-9" transform="translate(92.05 150.39) scale(0.99 1)">р</text><text class="cls-9" transform="translate(93.44 150.39) scale(0.99 1)">у</text><text class="cls-9" transform="translate(94.67 150.39) scale(0.99 1)">с</text><text class="cls-9" transform="translate(95.9 150.39) scale(0.99 1)">с</text><text class="cls-9" transform="translate(97.14 150.39) scale(0.99 1)">к</text><text class="cls-9" transform="translate(98.34 150.39) scale(0.99 1)">и</text><text class="cls-9" transform="translate(99.7 150.39) scale(0.99 1)">й</text><text class="cls-9" transform="translate(101.07 150.39) scale(0.99 1)"> </text><text class="cls-9" transform="translate(101.72 150.39) scale(0.99 1)">я</text><text class="cls-9" transform="translate(102.96 150.39) scale(0.99 1)">з</text><text class="cls-9" transform="translate(104.04 150.39) scale(0.99 1)">ы</text><text class="cls-9" transform="translate(105.62 150.39) scale(0.99 1)">к</text></g><g id="g13766"><g class="cls-13"><g id="g13768"><g id="g13770"><path id="path13772" class="cls-12" d="M101.07,140.45h-.68a.07.07,0,0,0-.06,0l-.56.92a.07.07,0,0,1-.12,0l-.56-.92a.07.07,0,0,0-.06,0h-.68a.07.07,0,0,0-.07.07v2.57a.07.07,0,0,0,.07.07h.59a.07.07,0,0,0,.07-.07v-1.24a.07.07,0,0,1,.13,0l.55.85h0l.56-.86a.07.07,0,0,1,.13,0v1.24a.07.07,0,0,0,.07.07h.6a.07.07,0,0,0,.07-.07v-2.57a.07.07,0,0,0-.07-.07m-3.86,1.38a.74.74,0,1,0-.74.75.74.74,0,0,0,.74-.75m.69,0a1.41,1.41,0,0,1-1.45,1.41,1.5,1.5,0,0,1-.64-.14l-1.1,1.66-.24-.16,1.09-1.65a1.39,1.39,0,0,1-.55-1.12,1.41,1.41,0,0,1,1.45-1.41,1.5,1.5,0,0,1,.68.16l1.11-1.68.24.16-1.11,1.67a1.39,1.39,0,0,1,.52,1.1m8.18-.37c0-.23-.16-.36-.43-.36h-.28a.07.07,0,0,0-.07.07v.57a.07.07,0,0,0,.07.07h.28c.26,0,.43-.14.43-.36m.74,0c0,.64-.49,1-1.15,1h-.3a.07.07,0,0,0-.07.07v.63a.07.07,0,0,1-.07.07h-.6a.07.07,0,0,1-.07-.07v-2.57a.07.07,0,0,1,.07-.07h1.08c.68,0,1.12.35,1.12,1m-2.81-1h-.59a.07.07,0,0,0-.06,0l-.89,1.3a.07.07,0,0,1-.13,0v-1.22a.07.07,0,0,0-.07-.07h-.59a.07.07,0,0,0-.07.07v2.57a.07.07,0,0,0,.07.07h.59a.07.07,0,0,0,.06,0l.89-1.3a.07.07,0,0,1,.13,0v1.22a.07.07,0,0,0,.07.07H104a.07.07,0,0,0,.07-.07v-2.57a.07.07,0,0,0-.07-.07m-14.53,0h-.65a.07.07,0,0,0-.06,0l-.49,1.09a.07.07,0,0,1-.13,0l-.52-1.1a.07.07,0,0,0-.06,0H86.9a.07.07,0,0,0-.06.11l1,1.85a.07.07,0,0,1,0,.09.29.29,0,0,1-.19.07.57.57,0,0,1-.24-.06.07.07,0,0,0-.09,0L87,143a.07.07,0,0,0,0,.1,1.2,1.2,0,0,0,.58.15c.41,0,.66-.2.91-.68l1-2a.07.07,0,0,0-.06-.1m5.37,2.21a.07.07,0,0,0,0-.1l-.45-.32a.07.07,0,0,0-.09,0,.7.7,0,0,1-.57.28.73.73,0,0,1,0-1.45.7.7,0,0,1,.55.26.07.07,0,0,0,.1,0l.44-.34a.07.07,0,0,0,0-.1,1.29,1.29,0,0,0-1.09-.52,1.39,1.39,0,0,0-1.41,1.41,1.37,1.37,0,0,0,1.38,1.41,1.34,1.34,0,0,0,1.14-.55m-3.49-1.23c0-.23-.16-.36-.43-.36h-.28a.07.07,0,0,0-.07.07v.57a.07.07,0,0,0,.07.07h.28c.26,0,.43-.14.43-.36m.74,0c0,.64-.49,1-1.15,1h-.3a.07.07,0,0,0-.07.07v.63a.07.07,0,0,1-.07.07h-.6a.07.07,0,0,1-.07-.07v-2.57a.07.07,0,0,1,.07-.07H91c.68,0,1.12.35,1.12,1m-5.38,1.64a.07.07,0,0,1-.06.11h-.72a.07.07,0,0,1-.06,0l-.6-.9a.07.07,0,0,0-.11,0l-.19.22a.07.07,0,0,0,0,0v.6a.07.07,0,0,1-.07.07h-.6a.07.07,0,0,1-.07-.07v-2.57a.07.07,0,0,1,.07-.07h.6a.07.07,0,0,1,.07.07v.83a.07.07,0,0,0,.13,0l.78-.93.05,0h.69a.07.07,0,0,1,.05.12l-.88,1a.07.07,0,0,0,0,.09Z"/></g></g></g></g></g></g></g></g></svg>