<svg xmlns="http://www.w3.org/2000/svg" style="width:0; height:0; visibility:hidden;">
    <symbol id="icon-avatar" viewBox="0 0 38 44">
        <g id="layer1" transform="translate(0,-1008.3622)"> <path id="path13319-01" class="st0" d="M19,1008.4c-7.7,0-14,6.3-14,14l0,0c0,7.7,6.3,14,14,14c0,0,0,0,0,0c7.7,0,14-6.3,14-14
		S26.7,1008.4,19,1008.4L19,1008.4z M19,1040.1c-6.9,0-13.5,1.3-19,3.5c4.6,5.4,11.4,8.7,19,8.7c7.6,0,14.4-3.4,19-8.7
		C32.6,1041.3,25.9,1040.1,19,1040.1z"/> </g> 
    </symbol>
    <symbol id="icon-facebook" viewBox="0 0 9 15">
       <path d="M2.4,4.7l0,0.9L0,5.6l0,3.2
	l2.4,0c0,0,0,3.3,0,5.6h3.2v-1.5V8.8l3.2,0l0-3.2H5.6l0-0.8c0-1.2,0.8-1.6,2-1.6h1.2V0L6.4,0C3.6,0,2.4,1.6,2.4,4.7L2.4,4.7z"/> 
    </symbol>
    <symbol id="icon-glass" viewBox="-292.3 414.4 19 12.8">
       <path d="M-274.2,420.7l-3.8-6.3l-2.6,1.6l0.8,1.3l1.4-0.8l1.4,2.4c-0.3,0-0.4,0-0.7,0c-1.7,0-3,0.9-3.7,2.4h-3.1
	c-0.7-1.4-2-2.4-3.7-2.4c-0.3,0-0.4,0-0.7,0l1.4-2.4l1.4,0.8l0.8-1.3l-2.6-1.6l-3.8,6.3c-0.5,0.7-0.8,1.4-0.8,2.4
	c0,2.4,1.8,4.2,4.2,4.2c2.4,0,4.2-1.8,4.2-4.2c0,0,0-0.3,0-0.4h2.2c0,0,0,0.3,0,0.4c0,2.4,1.8,4.2,4.2,4.2c2.4,0,4.2-1.8,4.2-4.2
	C-273.4,422.1-273.6,421.3-274.2,420.7L-274.2,420.7z M-288.1,425.6c-1.4,0-2.6-1.2-2.6-2.6s1.2-2.6,2.6-2.6c1.4,0,2.6,1.2,2.6,2.6
	S-286.6,425.6-288.1,425.6z M-277.6,425.6c-1.4,0-2.6-1.2-2.6-2.6s1.2-2.6,2.6-2.6s2.6,1.2,2.6,2.6S-276,425.6-277.6,425.6z"/> 
    </symbol>
    <symbol id="icon-info" viewBox="-292.3 411.6 19 19">
       <path d="M-282.8,411.6c-5.3,0-9.5,4.2-9.5,9.5s4.2,9.5,9.5,9.5s9.5-4.2,9.5-9.5S-277.5,411.6-282.8,411.6z M-282.8,429
	c-4.4,0-7.9-3.6-7.9-7.9s3.6-7.9,7.9-7.9s7.9,3.6,7.9,7.9S-278.4,429-282.8,429z M-282.8,415.5c-0.7,0-1.2,0.5-1.2,1.2
	c0,0.7,0.5,1.2,1.2,1.2s1.2-0.5,1.2-1.2C-281.6,416.1-282.1,415.5-282.8,415.5z M-283.6,426.6h1.6v-7.1h-1.6V426.6z"/> 
    </symbol>
    <symbol id="icon-logo-action" viewBox="0 0 20 30">
       <path d="M14.4,9l5.5-8.2L18.7,0l-5.5,8.2c-1-0.5-2.1-0.8-3.4-0.8c-4.1,0-7.2,3.1-7.2,6.9c0,2.3,1.1,4.2,2.7,5.5L0,27.9l1.2,0.8
	l5.5-8.1c0.9,0.4,2,0.7,3.2,0.7c4.1,0,7.2-3.1,7.2-6.9h0C17,12.2,16,10.2,14.4,9z M10,18c-2,0-3.7-1.6-3.7-3.7c0-2,1.6-3.7,3.7-3.7
	c2,0,3.7,1.6,3.7,3.7C13.6,16.4,12,18,10,18z"/> 
    </symbol>
    <symbol id="icon-logo-mit" viewBox="0 0 83 43.1">
       <rect id="rect8073" width="9.3" height="43.1"/> <rect id="rect8075" x="14.5" width="9.3" height="29.2"/> <rect id="rect8077" x="29.5" width="9.3" height="43.1"/> <rect id="rect8079" x="44" y="13.9" width="9.3" height="29.2"/> <rect id="rect8081" x="44" width="9.3" height="9.1"/> <rect id="rect8083" x="59.5" y="13.9" width="9.3" height="29.2"/> <rect id="rect8085" x="59.5" width="23.5" height="9.1"/> 
    </symbol>
    <symbol id="icon-logo-static" viewBox="-241 405.9 112 30">
       <path d="M-157.5,413.6h-3.3c-0.1,0-0.2,0.1-0.3,0.2l-2.8,4.5c-0.1,0.2-0.5,0.2-0.6,0l-2.8-4.5c-0.1-0.1-0.2-0.2-0.3-0.2h-3.3
	c-0.2,0-0.4,0.2-0.4,0.4v12.6c0,0.2,0.2,0.4,0.4,0.4h2.9c0.2,0,0.4-0.2,0.4-0.4v-6.1c0-0.3,0.5-0.5,0.6-0.2l2.7,4.2h0.1l2.8-4.2
	c0.2-0.3,0.6-0.2,0.6,0.2v6.1c0,0.2,0.2,0.4,0.4,0.4h3c0.2,0,0.4-0.2,0.4-0.4V414C-157.2,413.8-157.3,413.6-157.5,413.6
	 M-132.7,418.5c0-1.1-0.8-1.7-2.1-1.7h-1.4c-0.2,0-0.4,0.2-0.4,0.4v2.7c0,0.2,0.2,0.4,0.4,0.4h1.4
	C-133.5,420.2-132.7,419.5-132.7,418.5 M-129,418.3c0,3.1-2.4,4.8-5.7,4.8h-1.5c-0.2,0-0.4,0.2-0.4,0.4v3.1c0,0.2-0.2,0.4-0.4,0.4
	h-3c-0.2,0-0.4-0.2-0.4-0.4V414c0-0.2,0.2-0.4,0.4-0.4h5.3C-131.2,413.6-129,415.3-129,418.3 M-142.9,413.6h-2.9
	c-0.1,0-0.2,0.1-0.3,0.2l-4.4,6.4c-0.2,0.3-0.6,0.1-0.6-0.2v-6c0-0.2-0.2-0.4-0.4-0.4h-2.9c-0.2,0-0.4,0.2-0.4,0.4v12.6
	c0,0.2,0.2,0.4,0.4,0.4h2.9c0.1,0,0.2-0.1,0.3-0.2l4.4-6.4c0.2-0.3,0.6-0.1,0.6,0.2v6c0,0.2,0.2,0.4,0.4,0.4h2.9
	c0.2,0,0.4-0.2,0.4-0.4V414C-142.6,413.8-142.7,413.6-142.9,413.6 M-214.9,413.6h-3.2c-0.1,0-0.3,0.1-0.3,0.2l-2.4,5.4
	c-0.1,0.3-0.5,0.3-0.6,0l-2.6-5.4c-0.1-0.1-0.2-0.2-0.3-0.2h-3.3c-0.4,0-0.6,0.3-0.4,0.5l4.8,9.1c0.1,0.1,0,0.3-0.1,0.4
	c-0.3,0.3-0.7,0.4-1,0.4s-0.8-0.1-1.2-0.3c-0.2-0.1-0.4,0-0.5,0.1l-1,2.1c-0.1,0.2,0,0.4,0.1,0.5c0.8,0.4,1.8,0.7,2.9,0.7
	c2.1,0,3.3-1,4.5-3.3l4.9-9.6C-214.5,413.9-214.6,413.6-214.9,413.6 M-188.3,424.5c0.1-0.2,0.1-0.4-0.1-0.5l-2.2-1.6
	c-0.1-0.1-0.3-0.1-0.5,0c-0.7,0.8-1.5,1.4-2.8,1.4c-1.9,0-3.2-1.6-3.2-3.6s1.3-3.6,3.2-3.6c1.2,0,2,0.5,2.7,1.3
	c0.1,0.1,0.3,0.1,0.5,0l2.2-1.7c0.2-0.1,0.2-0.3,0.1-0.5c-1.2-1.5-2.8-2.5-5.4-2.5c-4,0-7,3-7,6.9c0,4,3.1,6.9,6.9,6.9
	C-191.2,427.2-189.5,426-188.3,424.5 M-205.6,418.5c0-1.1-0.8-1.7-2.1-1.7h-1.4c-0.2,0-0.4,0.2-0.4,0.4v2.7c0,0.2,0.2,0.4,0.4,0.4
	h1.4C-206.4,420.2-205.6,419.5-205.6,418.5 M-201.9,418.3c0,3.1-2.4,4.8-5.7,4.8h-1.5c-0.2,0-0.4,0.2-0.4,0.4v3.1
	c0,0.2-0.2,0.4-0.4,0.4h-3c-0.2,0-0.4-0.2-0.4-0.4V414c0-0.2,0.2-0.4,0.4-0.4h5.3C-204.1,413.6-201.9,415.3-201.9,418.3
	 M-228.6,426.4c0.2,0.2,0,0.6-0.3,0.6h-3.5c-0.1,0-0.2-0.1-0.3-0.2l-3-4.4c-0.1-0.2-0.4-0.2-0.6,0l-1,1.1c-0.1,0.1-0.1,0.1-0.1,0.2
	v3c0,0.2-0.2,0.4-0.4,0.4h-3c0-0.2-0.2-0.3-0.2-0.5V414c0-0.2,0.2-0.4,0.4-0.4h3c0.2,0,0.4,0.2,0.4,0.4v4.1c0,0.3,0.4,0.5,0.6,0.2
	l3.9-4.5c0.1-0.1,0.2-0.1,0.3-0.1h3.4c0.3,0,0.5,0.4,0.3,0.6l-4.3,4.9c-0.1,0.1-0.1,0.3,0,0.4L-228.6,426.4L-228.6,426.4z"/> 
    </symbol>
    <symbol id="icon-logo" viewBox="0 0 112 30">
       <path d="
	M83.5,7.7h-3.3c-0.1,0-0.2,0.1-0.3,0.2l-2.8,4.5c-0.1,0.2-0.5,0.2-0.6,0l-2.8-4.5c-0.1-0.1-0.2-0.2-0.3-0.2h-3.3
	c-0.2,0-0.4,0.2-0.4,0.4v12.6c0,0.2,0.2,0.4,0.4,0.4H73c0.2,0,0.4-0.2,0.4-0.4v-6.1c0-0.3,0.5-0.5,0.6-0.2l2.7,4.2h0.1l2.8-4.2
	c0.2-0.3,0.6-0.2,0.6,0.2v6.1c0,0.2,0.2,0.4,0.4,0.4h3c0.2,0,0.4-0.2,0.4-0.4V8.1C83.8,7.9,83.7,7.7,83.5,7.7 M64.3,14.5
	c0-2-1.6-3.7-3.7-3.7c-2,0-3.7,1.6-3.7,3.7s1.6,3.7,3.7,3.7C62.7,18.1,64.3,16.5,64.3,14.5 M67.8,14.4c0,3.8-3.1,6.9-7.2,6.9
	c-1.2,0-2.2-0.3-3.2-0.7L52,28.7l-1.2-0.8l5.4-8.1c-1.7-1.3-2.7-3.2-2.7-5.5c0-3.8,3.1-6.9,7.2-6.9c1.2,0,2.4,0.3,3.4,0.8L69.5,0
	l1.2,0.8L65.2,9C66.8,10.2,67.8,12.2,67.8,14.4 M108.3,12.6c0-1.1-0.8-1.7-2.1-1.7h-1.4c-0.2,0-0.4,0.2-0.4,0.4V14
	c0,0.2,0.2,0.4,0.4,0.4h1.4C107.5,14.3,108.3,13.6,108.3,12.6 M112,12.4c0,3.1-2.4,4.8-5.7,4.8h-1.5c-0.2,0-0.4,0.2-0.4,0.4v3.1
	c0,0.2-0.2,0.4-0.4,0.4h-3c-0.2,0-0.4-0.2-0.4-0.4V8.1c0-0.2,0.2-0.4,0.4-0.4h5.3C109.8,7.7,112,9.4,112,12.4 M98.1,7.7h-2.9
	c-0.1,0-0.2,0.1-0.3,0.2l-4.4,6.4c-0.2,0.3-0.6,0.1-0.6-0.2v-6c0-0.2-0.2-0.4-0.4-0.4h-2.9c-0.2,0-0.4,0.2-0.4,0.4v12.6
	c0,0.2,0.2,0.4,0.4,0.4h2.9c0.1,0,0.2-0.1,0.3-0.2l4.4-6.4c0.2-0.3,0.6-0.1,0.6,0.2v6c0,0.2,0.2,0.4,0.4,0.4h2.9
	c0.2,0,0.4-0.2,0.4-0.4V8.1C98.4,7.9,98.3,7.7,98.1,7.7 M26.1,7.7h-3.2c-0.1,0-0.3,0.1-0.3,0.2l-2.4,5.4c-0.1,0.3-0.5,0.3-0.6,0
	l-2.6-5.4c-0.1-0.1-0.2-0.2-0.3-0.2h-3.3C13,7.7,12.8,8,13,8.2l4.8,9.1c0.1,0.1,0,0.3-0.1,0.4c-0.3,0.3-0.7,0.4-1,0.4
	c-0.3,0-0.8-0.1-1.2-0.3c-0.2-0.1-0.4,0-0.5,0.1L14,20c-0.1,0.2,0,0.4,0.1,0.5c0.8,0.4,1.8,0.7,2.9,0.7c2.1,0,3.3-1,4.5-3.3l4.9-9.6
	C26.5,8,26.4,7.7,26.1,7.7 M52.7,18.6c0.1-0.2,0.1-0.4-0.1-0.5l-2.2-1.6c-0.1-0.1-0.3-0.1-0.5,0c-0.7,0.8-1.5,1.4-2.8,1.4
	c-1.9,0-3.2-1.6-3.2-3.6c0-2,1.3-3.6,3.2-3.6c1.2,0,2,0.5,2.7,1.3c0.1,0.1,0.3,0.1,0.5,0l2.2-1.7c0.2-0.1,0.2-0.3,0.1-0.5
	c-1.2-1.5-2.8-2.5-5.4-2.5c-4,0-7,3-7,6.9c0,4,3.1,6.9,6.9,6.9C49.8,21.3,51.5,20.1,52.7,18.6 M35.4,12.6c0-1.1-0.8-1.7-2.1-1.7
	h-1.4c-0.2,0-0.4,0.2-0.4,0.4V14c0,0.2,0.2,0.4,0.4,0.4h1.4C34.6,14.3,35.4,13.6,35.4,12.6 M39.1,12.4c0,3.1-2.4,4.8-5.7,4.8h-1.5
	c-0.2,0-0.4,0.2-0.4,0.4v3.1c0,0.2-0.2,0.4-0.4,0.4h-3c-0.2,0-0.4-0.2-0.4-0.4V8.1c0-0.2,0.2-0.4,0.4-0.4h5.3
	C36.9,7.7,39.1,9.4,39.1,12.4 M12.4,20.5c0.2,0.2,0,0.6-0.3,0.6H8.6c-0.1,0-0.2-0.1-0.3-0.2l-3-4.4c-0.1-0.2-0.4-0.2-0.6,0l-1,1.1
	c-0.1,0.1-0.1,0.1-0.1,0.2v3c0,0.2-0.2,0.4-0.4,0.4h-3C0.2,21,0,20.9,0,20.7V8.1c0-0.2,0.2-0.4,0.4-0.4h3c0.2,0,0.4,0.2,0.4,0.4v4.1
	c0,0.3,0.4,0.5,0.6,0.2l3.9-4.5c0.1-0.1,0.2-0.1,0.3-0.1h3.4c0.3,0,0.5,0.4,0.3,0.6l-4.3,4.9c-0.1,0.1-0.1,0.3,0,0.4L12.4,20.5
	L12.4,20.5z"/> 
    </symbol>
    <symbol id="icon-menu" viewBox="316.7 496.5 11.2 9.6">
       <g id="layer1"> <path id="path12079" d="M316.7,496.5v1.6h11.2v-1.6H316.7z M316.7,500.5v1.6h11.2v-1.6H316.7z M316.7,504.5v1.6h11.2v-1.6H316.7z"/> </g> 
    </symbol>
    <symbol id="icon-news" viewBox="-294.5 411.6 19 19">
       <path d="M-277.3,413.4v10.4h-2.6l-3.6,2.8v-2.8h-9.1v-10.4H-277.3 M-275.5,411.6h-19v14h9.1v5l6.3-5h3.6V411.6L-275.5,411.6z"/> 
    </symbol>
    <symbol id="icon-team" viewBox="-292.3 413 19 15.7">
       <path d="M-282.8,414.4c0.7,0,1.1,0.5,1.1,1.1c0,0.3-0.1,0.5-0.3,0.7l-0.1,0.3l-0.3,0.1c-0.1,0-0.3,0.1-0.4,0.1s-0.3-0.1-0.4-0.1
	l-0.3-0.1l-0.3-0.3c0-0.1-0.1-0.3-0.1-0.7C-283.9,415-283.5,414.4-282.8,414.4 M-275.8,417.2c0.7,0,1.1,0.5,1.1,1.1
	s-0.4,1.1-0.9,1.1h-0.4l-0.3-0.1l0,0l0,0l-0.3-0.1l-0.1-0.3c-0.1-0.1-0.1-0.4-0.1-0.5C-277,417.7-276.5,417.2-275.8,417.2
	 M-289.8,417.2c0.7,0,1.1,0.5,1.1,1.1c0,0.1,0,0.4-0.1,0.5v0.4l-0.4,0.1l0,0l0,0l-0.3,0.1h-0.4c-0.5-0.1-0.9-0.5-0.9-1.2
	C-290.8,417.7-290.3,417.2-289.8,417.2 M-282.8,413c-1.5,0-2.5,1.2-2.5,2.5c0,0.5,0.1,1.1,0.5,1.5l-2.1,3.2l-0.5-0.5
	c0.1-0.4,0.3-0.8,0.3-1.3c0-1.3-1.2-2.5-2.6-2.5c-1.5,0-2.5,1.2-2.5,2.5c0,1.3,0.9,2.4,2.2,2.6v7.8h14.6v-7.8
	c1.2-0.3,2.1-1.3,2.1-2.6c0-1.5-1.2-2.5-2.5-2.5c-1.3,0-2.6,1.2-2.6,2.5c0,0.4,0.1,0.8,0.3,1.2l-0.7,0.5l-1.8-2.9
	c0.3-0.5,0.4-0.9,0.4-1.6C-280.3,414.2-281.3,413-282.8,413L-282.8,413L-282.8,413z M-282.8,423.4l-2.9-2.4l2-3
	c0.3,0.1,0.7,0.1,0.9,0.1s0.7,0,0.9-0.1l2,3L-282.8,423.4L-282.8,423.4z M-288.6,427.2v-6.6h0.1l5.7,4.8l5.7-4.8h0.1v6.6H-288.6
	L-288.6,427.2z"/> 
    </symbol>
    <symbol id="icon-telegram" viewBox="0 0 20 16">
       <path d="M18.5,0L0.3,6.7c-0.4,0.2-0.4,0.8,0,0.9l4.4,1.6l1.7,5.3
	C6.6,14.9,7,15,7.3,14.8l2.5-1.9c0.3-0.2,0.6-0.2,0.9,0l4.5,3.1c0.3,0.2,0.7,0,0.8-0.3l3.3-15C19.3,0.2,18.9-0.1,18.5,0L18.5,0z
	 M15.1,3.5L7.9,9.9c-0.2,0.2-0.4,0.5-0.5,0.9l-0.2,1.7c0,0.2-0.4,0.3-0.4,0L5.8,9.4C5.7,9,5.9,8.6,6.2,8.4l8.7-5.1
	C15,3.2,15.2,3.4,15.1,3.5L15.1,3.5z"/> 
    </symbol>
    <symbol id="icon-twitter" viewBox="0 0 18 15">
       <path d="M17.6,1.6c-0.7,0.3-1.4,0.5-2.1,0.5c0.7-0.4,1.4-1.1,1.6-2.1
	c-0.7,0.4-1.5,0.7-2.3,0.8c-0.7-0.5-1.7-1-2.6-1c-2.1,0-3.7,1.6-3.7,3.6c0,0.3,0,0.5,0.1,0.8C5.6,4.3,3,2.9,1.2,0.7
	C1,1.2,0.7,1.8,0.7,2.5c0,1.2,0.7,2.3,1.6,3c-0.5,0-1.1-0.1-1.6-0.4l0,0c0,1.8,1.2,3.2,2.9,3.6c-0.3,0-0.5,0.1-1,0.1
	c-0.3,0-0.4,0-0.7,0c0.4,1.4,1.8,2.5,3.4,2.5c-1.2,0.8-2.7,1.5-4.5,1.5c-0.3,0-0.5,0-0.8,0c1.6,1,3.4,1.6,5.5,1.6
	c6.6,0,10.3-5.5,10.3-10.3V3.7C16.5,3,17,2.5,17.6,1.6L17.6,1.6L17.6,1.6z"/> 
    </symbol>
    <symbol id="icon-vk" viewBox="0 0 11 14">
       <path d="M7.8,6.1L7.8,6.1
	c1.1-0.4,2-1.4,2-3c0-2-1.7-3.1-3.5-3.1H0v13.6h5.8c3.5,0,4.9-2.2,4.9-4.1C10.7,7.3,9.5,6.5,7.8,6.1L7.8,6.1z M3.2,2.4H4
	c0.5,0,1.4-0.1,1.8,0.2c0.4,0.3,0.7,0.7,0.7,1.2c0,0.5-0.2,1.2-0.6,1.5C5.4,5.6,4.8,5.6,4.2,5.6h-1V2.4z M6.6,10.9
	c-0.5,0.3-1.2,0.3-1.8,0.3H3.2V8h1.7c0.5,0,1.1,0,1.6,0.3C7,8.5,7.3,8.9,7.3,9.5C7.3,10.1,7.1,10.6,6.6,10.9z"/> 
    </symbol>
    <symbol id="icon-wanna-help" viewBox="0 0 15.03 14.32">
      <title>wanna-help</title><path class="a" d="M852.2-228l-3.6-2L845-227.94l0.82-4.05-3.08-2.77,4.11-.47,1.68-3.78,1.72,3.76,4.11,0.43-3,2.8Z" transform="translate(-841.05 240.81)"/>
    </symbol></svg>