<svg xmlns="http://www.w3.org/2000/svg" viewBox="0 0 303.39 224"><defs><style>.a{fill:#4074a9;}.b{fill:#719d3e;}.c{fill:#7b597c;}.d{fill:#282c2e;}.e{fill:#3d4041;}.f{fill:#ececec;}.g{fill:#ccc;}.h{fill:#fff;}.i{fill:#e6e6e6;}.j{fill:#c4c1c1;}.k{fill:#d4d2d2;}.l{fill:#a33d40;}.m{fill:#fc0;}.n{fill:#ec4e42;}.o{fill:#bc5917;}.p{fill:none;stroke:#557b2a;stroke-width:2px;}.q{fill:#ffe680;}.r{fill:#a40;}</style></defs><title>mac1</title><rect class="a" x="241.11" y="92.4" width="22.09" height="97.2"/><rect class="b" x="219.2" y="101.6" width="24" height="88"/><rect class="c" x="200.8" y="101.6" width="18.4" height="88"/><rect class="d" width="256" height="160" rx="7.2" ry="7.2"/><rect class="e" x="8" y="8" width="240" height="122.4"/><rect class="f" x="88" y="183.2" width="80" height="6.4"/><path class="g" d="M342,224h36l4,23.2H338Z" transform="translate(-232 -64)"/><circle class="h" cx="128" cy="4" r="0.8"/><path class="f" d="M488,202.4v18a3.59,3.59,0,0,1-3.6,3.6H235.6a3.45,3.45,0,0,1-3.6-3.43V202.4H488Z" transform="translate(-232 -64)"/><rect class="f" x="37.6" y="196" width="176" height="28"/><rect class="g" x="48.8" y="217.2" width="12" height="4"/><rect class="g" x="40.8" y="211.2" width="16" height="4"/><rect class="g" x="40.8" y="205.2" width="12" height="4"/><rect class="g" x="40.8" y="199.2" width="8" height="4"/><rect class="g" x="62.4" y="217.2" width="12" height="4"/><rect class="g" x="58.4" y="211.2" width="12" height="4"/><rect class="g" x="54.4" y="205.2" width="12" height="4"/><rect class="g" x="50.4" y="199.2" width="12" height="4"/><rect class="g" x="76" y="217.2" width="96" height="4"/><rect class="g" x="72" y="211.2" width="12" height="4"/><rect class="g" x="68" y="205.2" width="12" height="4"/><rect class="g" x="64" y="199.2" width="12" height="4"/><rect class="g" x="85.6" y="211.2" width="12" height="4"/><rect class="g" x="81.6" y="205.2" width="12" height="4"/><rect class="g" x="77.6" y="199.2" width="12" height="4"/><rect class="g" x="99.2" y="211.2" width="12" height="4"/><rect class="g" x="95.2" y="205.2" width="12" height="4"/><rect class="g" x="91.2" y="199.2" width="12" height="4"/><rect class="g" x="112.8" y="211.2" width="12" height="4"/><rect class="g" x="108.8" y="205.2" width="12" height="4"/><rect class="g" x="104.8" y="199.2" width="12" height="4"/><rect class="g" x="126.4" y="211.2" width="12" height="4"/><rect class="g" x="122.4" y="205.2" width="12" height="4"/><rect class="g" x="118.4" y="199.2" width="12" height="4"/><rect class="g" x="140" y="211.2" width="12" height="4"/><rect class="g" x="136" y="205.2" width="12" height="4"/><rect class="g" x="132" y="199.2" width="12" height="4"/><rect class="g" x="153.6" y="211.2" width="12" height="4"/><rect class="g" x="149.6" y="205.2" width="12" height="4"/><rect class="g" x="145.6" y="199.2" width="12" height="4"/><rect class="g" x="173.6" y="217.2" width="12" height="4"/><rect class="g" x="167.2" y="211.2" width="12" height="4"/><rect class="g" x="163.2" y="205.2" width="12" height="4"/><rect class="g" x="159.2" y="199.2" width="12" height="4"/><rect class="g" x="187.2" y="217.2" width="12" height="4"/><rect class="g" x="180.8" y="211.2" width="12" height="4"/><rect class="g" x="176.8" y="205.2" width="12" height="4"/><rect class="g" x="172.8" y="199.2" width="12" height="4"/><rect class="g" x="200.8" y="217.2" width="9.6" height="4"/><rect class="g" x="194.4" y="211.2" width="16" height="4"/><rect class="g" x="190.4" y="205.2" width="12" height="4"/><rect class="g" x="186.4" y="199.2" width="12" height="4"/><rect class="g" x="200" y="199.2" width="10.4" height="4"/><rect class="g" x="204" y="205.2" width="6.4" height="4"/><rect class="g" x="40.8" y="217.2" width="6" height="4"/><rect class="h" x="8" y="8" width="240" height="122.4"/><rect class="i" x="8" y="8" width="120" height="122.4"/><rect class="j" x="21.6" y="20.8" width="92" height="1.6"/><rect class="j" x="21.6" y="24" width="81.42" height="1.6"/><rect class="j" x="21.6" y="27.2" width="92" height="1.6"/><rect class="j" x="21.6" y="30.4" width="39.08" height="1.6"/><rect class="j" x="21.6" y="33.6" width="92" height="1.6"/><rect class="j" x="21.6" y="36.8" width="21.17" height="1.6"/><rect class="j" x="63.94" y="30.4" width="39.08" height="1.6"/><rect class="j" x="21.6" y="44" width="92" height="1.6"/><rect class="j" x="21.6" y="47.2" width="56.99" height="1.6"/><rect class="j" x="21.6" y="50.4" width="92" height="1.6"/><rect class="j" x="46.84" y="56.8" width="59.43" height="1.6"/><rect class="j" x="21.6" y="53.6" width="65.95" height="1.6"/><rect class="j" x="21.6" y="60" width="42.34" height="1.6"/><rect class="j" x="21.6" y="56.8" width="21.17" height="1.6"/><rect class="j" x="81.85" y="47.2" width="21.17" height="1.6"/><rect class="j" x="21.6" y="67.2" width="38.27" height="1.6"/><rect class="j" x="21.6" y="70.4" width="92" height="1.6"/><rect class="j" x="21.6" y="73.6" width="92" height="1.6"/><rect class="j" x="21.6" y="76.8" width="29.44" height="1.6"/><rect class="j" x="21.6" y="80" width="48.58" height="1.6"/><rect class="j" x="21.6" y="83.2" width="92" height="1.6"/><rect class="j" x="54.72" y="76.8" width="50.78" height="1.6"/><rect class="j" x="63.55" y="67.2" width="38.27" height="1.6"/><rect class="j" x="73.86" y="80" width="24.29" height="1.6"/><rect class="j" x="21.6" y="91.2" width="84.1" height="1.6"/><rect class="j" x="21.6" y="94.4" width="81.42" height="1.6"/><rect class="j" x="21.6" y="97.6" width="92" height="1.6"/><rect class="j" x="21.6" y="100.8" width="39.08" height="1.6"/><rect class="j" x="21.6" y="104" width="92" height="1.6"/><rect class="j" x="21.6" y="107.2" width="21.17" height="1.6"/><rect class="j" x="63.94" y="100.8" width="31.78" height="1.6"/><rect class="k" x="141.6" y="20.8" width="92" height="1.6"/><rect class="k" x="141.6" y="24" width="81.42" height="1.6"/><rect class="k" x="141.6" y="27.2" width="92" height="1.6"/><rect class="k" x="141.6" y="30.4" width="39.08" height="1.6"/><rect class="k" x="141.6" y="33.6" width="92" height="1.6"/><rect class="k" x="141.6" y="36.8" width="21.17" height="1.6"/><rect class="k" x="183.94" y="30.4" width="39.08" height="1.6"/><rect class="k" x="141.6" y="44" width="92" height="1.6"/><rect class="k" x="141.6" y="47.2" width="56.99" height="1.6"/><rect class="k" x="141.6" y="50.4" width="92" height="1.6"/><rect class="k" x="166.84" y="56.8" width="59.43" height="1.6"/><rect class="k" x="141.6" y="53.6" width="65.95" height="1.6"/><rect class="k" x="141.6" y="60" width="42.34" height="1.6"/><rect class="k" x="141.6" y="56.8" width="21.17" height="1.6"/><rect class="k" x="201.85" y="47.2" width="21.17" height="1.6"/><rect class="k" x="141.6" y="67.2" width="38.27" height="1.6"/><rect class="k" x="141.6" y="70.4" width="92" height="1.6"/><rect class="k" x="141.6" y="73.6" width="92" height="1.6"/><rect class="k" x="141.6" y="76.8" width="29.44" height="1.6"/><rect class="k" x="141.6" y="80" width="48.58" height="1.6"/><rect class="k" x="141.6" y="83.2" width="92" height="1.6"/><rect class="k" x="174.72" y="76.8" width="50.78" height="1.6"/><rect class="k" x="183.55" y="67.2" width="38.27" height="1.6"/><rect class="k" x="193.86" y="80" width="24.29" height="1.6"/><rect class="k" x="141.6" y="91.2" width="84.1" height="1.6"/><rect class="k" x="141.6" y="94.4" width="81.42" height="1.6"/><rect class="k" x="141.6" y="97.6" width="92" height="1.6"/><rect class="k" x="141.6" y="100.8" width="39.08" height="1.6"/><rect class="k" x="141.6" y="104" width="92" height="1.6"/><rect class="k" x="141.6" y="107.2" width="21.17" height="1.6"/><rect class="k" x="183.94" y="100.8" width="31.78" height="1.6"/><rect class="l" x="506.31" y="164.78" width="18" height="88" transform="translate(-268.48 76.49) rotate(-15)"/><circle class="m" cx="210" cy="177.6" r="4"/><circle class="n" cx="523.59" cy="239.29" r="4" transform="translate(-276.09 79.67) rotate(-15)"/><path class="b" d="M284.3,197.85c0,14-8.82,32.84-15.25,32.84-6.58,0-15.25-18.84-15.25-32.84S262.15,180,269.05,180,284.3,183.85,284.3,197.85Z" transform="translate(-232 -64)"/><rect class="o" x="15.2" y="153.6" width="44" height="6.4"/><path class="p" d="M252.68,212.59l6.2-2.14" transform="translate(-232 -64)"/><path class="p" d="M251,204.47l6.52-.71" transform="translate(-232 -64)"/><path class="p" d="M250.56,197.42l6.55,0.38" transform="translate(-232 -64)"/><path class="p" d="M251.69,190.24l6.37,1.54" transform="translate(-232 -64)"/><path class="p" d="M254.31,182.81l4.94,4.31" transform="translate(-232 -64)"/><path class="p" d="M261.24,177.29l2.28,6.15" transform="translate(-232 -64)"/><path class="p" d="M269.13,176.19v6.56" transform="translate(-232 -64)"/><path class="p" d="M285.58,212.59l-6.2-2.14" transform="translate(-232 -64)"/><path class="p" d="M287.24,204.47l-6.52-.71" transform="translate(-232 -64)"/><path class="p" d="M287.7,197.42l-6.55.38" transform="translate(-232 -64)"/><path class="p" d="M286.57,190.24l-6.37,1.54" transform="translate(-232 -64)"/><path class="p" d="M284,182.81L279,187.12" transform="translate(-232 -64)"/><path class="p" d="M277,177.29l-2.28,6.15" transform="translate(-232 -64)"/><path class="q" d="M268.84,200.56a6.24,6.24,0,0,1-1.16-.92c-1.2-1.17-1.3-1.94-.41-2.91a10.33,10.33,0,0,1,1.25-1,6.18,6.18,0,0,0,.8-0.63,3,3,0,0,0-.58.12,5.4,5.4,0,0,1-1.45.12,2.09,2.09,0,0,1-1.93-.78,1.25,1.25,0,0,1-.19-1,4.75,4.75,0,0,1,.78-2.23,1.65,1.65,0,0,1,2.4-.69,10.31,10.31,0,0,1,1.38.85,4.8,4.8,0,0,0,.78.52,1.38,1.38,0,0,0-.23-0.43,4.39,4.39,0,0,1-.73-2.85c0.24-1.07,1.54-1.51,3.27-1.11s2.06,1.24,1.35,3.42c-0.19.59-.35,1.11-0.35,1.14a4,4,0,0,0,.67-0.62c1.31-1.33,2.58-1.64,3.34-.83,0.93,1,1.22,3.28.5,4-0.46.49-.84,0.59-2.36,0.64l-1.39,0,0.49,0.21A5,5,0,0,1,277,196.9a1.63,1.63,0,0,1,.52,1.56c-0.15.82-1.89,2-3,2.11s-1.57-.43-2.17-2.24a6.66,6.66,0,0,0-.44-1.14,1.36,1.36,0,0,0-.08.56,4,4,0,0,1-1.24,2.83,1.75,1.75,0,0,1-1.66,0h0Zm4.19-4.7a2.54,2.54,0,0,0,.9-1.55,2.17,2.17,0,0,0-1.17-1.87,2.7,2.7,0,0,0-.83-0.13,1.87,1.87,0,0,0-1.85,2.41,2,2,0,0,0,2.95,1.14h0Z" transform="translate(-232 -64)"/><path class="r" d="M251.2,224h36l-4,29.2h-28Z" transform="translate(-232 -64)"/><circle class="c" cx="231.2" cy="177.6" r="4"/><circle class="n" cx="253.2" cy="177.6" r="4"/></svg>