<svg xmlns="http://www.w3.org/2000/svg" viewBox="0 0 290.38 224"><defs><style>.a{fill:#282c2e;}.b{fill:#e6e6e6;}.c{fill:#ececec;}.d{fill:#ccc;}.e{fill:#fff;}.f{fill:#d4d2d2;}.g{fill:#ec4e42;}.h{fill:#c43c33;}.i{fill:#62c662;}.j{fill:#fc0;}</style></defs><title>mac2</title><rect class="a" width="256" height="160" rx="7.2" ry="7.2"/><rect class="b" x="8" y="8" width="240" height="122.4"/><rect class="c" x="88" y="183.2" width="80" height="6.4"/><path class="d" d="M342,624h36l4,23.2H338Z" transform="translate(-232 -464)"/><path class="c" d="M488,602.4v18a3.59,3.59,0,0,1-3.6,3.6H235.6a3.45,3.45,0,0,1-3.6-3.43V602.4H488Z" transform="translate(-232 -464)"/><rect class="c" x="37.6" y="196" width="176" height="28"/><rect class="d" x="48.8" y="217.2" width="12" height="4"/><rect class="d" x="40.8" y="211.2" width="16" height="4"/><rect class="d" x="40.8" y="205.2" width="12" height="4"/><rect class="d" x="40.8" y="199.2" width="8" height="4"/><rect class="d" x="62.4" y="217.2" width="12" height="4"/><rect class="d" x="58.4" y="211.2" width="12" height="4"/><rect class="d" x="54.4" y="205.2" width="12" height="4"/><rect class="d" x="50.4" y="199.2" width="12" height="4"/><rect class="d" x="76" y="217.2" width="96" height="4"/><rect class="d" x="72" y="211.2" width="12" height="4"/><rect class="d" x="68" y="205.2" width="12" height="4"/><rect class="d" x="64" y="199.2" width="12" height="4"/><rect class="d" x="85.6" y="211.2" width="12" height="4"/><rect class="d" x="81.6" y="205.2" width="12" height="4"/><rect class="d" x="77.6" y="199.2" width="12" height="4"/><rect class="d" x="99.2" y="211.2" width="12" height="4"/><rect class="d" x="95.2" y="205.2" width="12" height="4"/><rect class="d" x="91.2" y="199.2" width="12" height="4"/><rect class="d" x="112.8" y="211.2" width="12" height="4"/><rect class="d" x="108.8" y="205.2" width="12" height="4"/><rect class="d" x="104.8" y="199.2" width="12" height="4"/><rect class="d" x="126.4" y="211.2" width="12" height="4"/><rect class="d" x="122.4" y="205.2" width="12" height="4"/><rect class="d" x="118.4" y="199.2" width="12" height="4"/><rect class="d" x="140" y="211.2" width="12" height="4"/><rect class="d" x="136" y="205.2" width="12" height="4"/><rect class="d" x="132" y="199.2" width="12" height="4"/><rect class="d" x="153.6" y="211.2" width="12" height="4"/><rect class="d" x="149.6" y="205.2" width="12" height="4"/><rect class="d" x="145.6" y="199.2" width="12" height="4"/><rect class="d" x="173.6" y="217.2" width="12" height="4"/><rect class="d" x="167.2" y="211.2" width="12" height="4"/><rect class="d" x="163.2" y="205.2" width="12" height="4"/><rect class="d" x="159.2" y="199.2" width="12" height="4"/><rect class="d" x="187.2" y="217.2" width="12" height="4"/><rect class="d" x="180.8" y="211.2" width="12" height="4"/><rect class="d" x="176.8" y="205.2" width="12" height="4"/><rect class="d" x="172.8" y="199.2" width="12" height="4"/><rect class="d" x="200.8" y="217.2" width="9.6" height="4"/><rect class="d" x="194.4" y="211.2" width="16" height="4"/><rect class="d" x="190.4" y="205.2" width="12" height="4"/><rect class="d" x="186.4" y="199.2" width="12" height="4"/><rect class="d" x="200" y="199.2" width="10.4" height="4"/><rect class="d" x="204" y="205.2" width="6.4" height="4"/><rect class="d" x="40.8" y="217.2" width="6" height="4"/><circle class="e" cx="128" cy="4" r="0.8"/><rect class="e" x="56" y="18.4" width="120" height="112"/><rect class="f" x="69.6" y="30.4" width="92" height="1.6"/><rect class="f" x="69.6" y="33.6" width="81.42" height="1.6"/><rect class="f" x="69.6" y="36.8" width="92" height="1.6"/><rect class="f" x="69.6" y="40" width="39.08" height="1.6"/><rect class="f" x="69.6" y="43.2" width="92" height="1.6"/><rect class="f" x="69.6" y="46.4" width="21.17" height="1.6"/><rect class="f" x="111.94" y="40" width="39.08" height="1.6"/><rect class="f" x="69.6" y="53.6" width="92" height="1.6"/><rect class="f" x="69.6" y="56.8" width="56.99" height="1.6"/><rect class="f" x="69.6" y="60" width="92" height="1.6"/><rect class="g" x="94.84" y="66.4" width="59.43" height="1.6"/><rect class="f" x="69.6" y="63.2" width="65.95" height="1.6"/><rect class="g" x="69.6" y="69.6" width="42.34" height="1.6"/><rect class="f" x="69.6" y="66.4" width="21.17" height="1.6"/><rect class="f" x="129.85" y="56.8" width="21.17" height="1.6"/><rect class="f" x="69.6" y="76.8" width="38.27" height="1.6"/><rect class="f" x="69.6" y="80" width="92" height="1.6"/><rect class="f" x="69.6" y="83.2" width="92" height="1.6"/><rect class="f" x="69.6" y="86.4" width="29.44" height="1.6"/><rect class="f" x="69.6" y="89.6" width="48.58" height="1.6"/><rect class="f" x="69.6" y="92.8" width="92" height="1.6"/><rect class="g" x="102.72" y="86.4" width="50.78" height="1.6"/><rect class="f" x="111.55" y="76.8" width="38.27" height="1.6"/><rect class="f" x="121.86" y="89.6" width="24.29" height="1.6"/><rect class="f" x="69.6" y="100.8" width="84.1" height="1.6"/><rect class="f" x="69.6" y="104" width="81.42" height="1.6"/><rect class="f" x="69.6" y="107.2" width="92" height="1.6"/><rect class="g" x="69.6" y="110.4" width="39.08" height="1.6"/><rect class="f" x="69.6" y="113.6" width="92" height="1.6"/><rect class="f" x="69.6" y="116.8" width="21.17" height="1.6"/><rect class="f" x="111.94" y="110.4" width="31.78" height="1.6"/><path class="h" d="M506.38,648a16,16,0,1,0,16,16A16.06,16.06,0,0,0,506.38,648Zm0,8a8,8,0,1,1-8,8A7.94,7.94,0,0,1,506.38,656Z" transform="translate(-232 -464)"/><rect class="g" x="234.4" y="176" width="40" height="48"/><rect class="f" x="208" y="8" width="40" height="122.4"/><rect class="f" x="8" y="8" width="16" height="122.4"/><rect class="i" x="265.4" y="605.63" width="28.8" height="28.8" transform="translate(-623.52 265.82) rotate(-75)"/><rect class="i" x="191.2" y="144.8" width="28.8" height="28.8"/><rect class="j" x="401.37" y="598.82" width="28.8" height="28.8" transform="translate(-376.55 -335.5) rotate(-15)"/></svg>