<svg xmlns="http://www.w3.org/2000/svg" viewBox="0 0 256 224"><defs><style>.a{fill:#282c2e;}.b{fill:#e6e6e6;}.c{fill:#ececec;}.d{fill:#ccc;}.e{fill:#fff;}.f{fill:#d4d2d2;}.g{fill:#d3635b;}.h,.i{isolation:isolate;}.i{font-size:46.7px;fill:#e5a39f;font-family:STIXGeneral;font-weight:700;}.j{fill:#cdb7b6;}</style></defs><title>mac3</title><rect class="a" width="256" height="160" rx="7.2" ry="7.2"/><rect class="b" x="8" y="8" width="240" height="122.4"/><rect class="c" x="88" y="183.2" width="80" height="6.4"/><path class="d" d="M342,1024h36l4,23.2H338Z" transform="translate(-232 -864)"/><path class="c" d="M488,1002.4v18a3.59,3.59,0,0,1-3.6,3.6H235.6a3.45,3.45,0,0,1-3.6-3.43V1002.4H488Z" transform="translate(-232 -864)"/><rect class="c" x="37.6" y="196" width="176" height="28"/><rect class="d" x="48.8" y="217.2" width="12" height="4"/><rect class="d" x="40.8" y="211.2" width="16" height="4"/><rect class="d" x="40.8" y="205.2" width="12" height="4"/><rect class="d" x="40.8" y="199.2" width="8" height="4"/><rect class="d" x="62.4" y="217.2" width="12" height="4"/><rect class="d" x="58.4" y="211.2" width="12" height="4"/><rect class="d" x="54.4" y="205.2" width="12" height="4"/><rect class="d" x="50.4" y="199.2" width="12" height="4"/><rect class="d" x="76" y="217.2" width="96" height="4"/><rect class="d" x="72" y="211.2" width="12" height="4"/><rect class="d" x="68" y="205.2" width="12" height="4"/><rect class="d" x="64" y="199.2" width="12" height="4"/><rect class="d" x="85.6" y="211.2" width="12" height="4"/><rect class="d" x="81.6" y="205.2" width="12" height="4"/><rect class="d" x="77.6" y="199.2" width="12" height="4"/><rect class="d" x="99.2" y="211.2" width="12" height="4"/><rect class="d" x="95.2" y="205.2" width="12" height="4"/><rect class="d" x="91.2" y="199.2" width="12" height="4"/><rect class="d" x="112.8" y="211.2" width="12" height="4"/><rect class="d" x="108.8" y="205.2" width="12" height="4"/><rect class="d" x="104.8" y="199.2" width="12" height="4"/><rect class="d" x="126.4" y="211.2" width="12" height="4"/><rect class="d" x="122.4" y="205.2" width="12" height="4"/><rect class="d" x="118.4" y="199.2" width="12" height="4"/><rect class="d" x="140" y="211.2" width="12" height="4"/><rect class="d" x="136" y="205.2" width="12" height="4"/><rect class="d" x="132" y="199.2" width="12" height="4"/><rect class="d" x="153.6" y="211.2" width="12" height="4"/><rect class="d" x="149.6" y="205.2" width="12" height="4"/><rect class="d" x="145.6" y="199.2" width="12" height="4"/><rect class="d" x="173.6" y="217.2" width="12" height="4"/><rect class="d" x="167.2" y="211.2" width="12" height="4"/><rect class="d" x="163.2" y="205.2" width="12" height="4"/><rect class="d" x="159.2" y="199.2" width="12" height="4"/><rect class="d" x="187.2" y="217.2" width="12" height="4"/><rect class="d" x="180.8" y="211.2" width="12" height="4"/><rect class="d" x="176.8" y="205.2" width="12" height="4"/><rect class="d" x="172.8" y="199.2" width="12" height="4"/><rect class="d" x="200.8" y="217.2" width="9.6" height="4"/><rect class="d" x="194.4" y="211.2" width="16" height="4"/><rect class="d" x="190.4" y="205.2" width="12" height="4"/><rect class="d" x="186.4" y="199.2" width="12" height="4"/><rect class="d" x="200" y="199.2" width="10.4" height="4"/><rect class="d" x="204" y="205.2" width="6.4" height="4"/><rect class="d" x="40.8" y="217.2" width="6" height="4"/><circle class="e" cx="128" cy="4" r="0.8"/><rect class="e" x="68" y="18.4" width="120" height="112"/><rect class="f" x="124.8" y="39.2" width="48.8" height="1.6"/><rect class="f" x="124.8" y="42.4" width="43.19" height="1.6"/><rect class="f" x="124.8" y="45.6" width="48.8" height="1.6"/><rect class="f" x="124.8" y="48.8" width="20.73" height="1.6"/><rect class="f" x="124.8" y="52" width="48.8" height="1.6"/><rect class="f" x="124.8" y="55.2" width="11.23" height="1.6"/><rect class="f" x="147.26" y="48.8" width="20.73" height="1.6"/><rect class="f" x="124.8" y="62.4" width="48.8" height="1.6"/><rect class="f" x="124.8" y="65.6" width="30.23" height="1.6"/><rect class="f" x="124.8" y="68.8" width="48.8" height="1.6"/><rect class="f" x="138.19" y="75.2" width="31.53" height="1.6"/><rect class="f" x="124.8" y="72" width="34.98" height="1.6"/><rect class="f" x="124.8" y="78.4" width="22.46" height="1.6"/><rect class="f" x="124.8" y="75.2" width="11.23" height="1.6"/><rect class="f" x="156.76" y="65.6" width="11.23" height="1.6"/><rect class="f" x="81.6" y="85.6" width="38.27" height="1.6"/><rect class="f" x="81.6" y="88.8" width="92" height="1.6"/><rect class="f" x="81.6" y="92" width="92" height="1.6"/><rect class="f" x="81.6" y="95.2" width="29.44" height="1.6"/><rect class="f" x="81.6" y="98.4" width="48.58" height="1.6"/><rect class="f" x="81.6" y="101.6" width="92" height="1.6"/><rect class="f" x="114.72" y="95.2" width="50.78" height="1.6"/><rect class="f" x="123.55" y="85.6" width="38.27" height="1.6"/><rect class="f" x="133.86" y="98.4" width="24.29" height="1.6"/><rect class="f" x="81.6" y="109.6" width="84.1" height="1.6"/><rect class="f" x="81.6" y="112.8" width="81.42" height="1.6"/><rect class="f" x="81.6" y="116" width="92" height="1.6"/><rect class="f" x="81.6" y="119.2" width="39.08" height="1.6"/><rect class="g" x="81.6" y="39.2" width="36.8" height="40.8"/><g class="h"><text class="i" transform="translate(89.42 69.52)">a</text></g><rect class="j" x="81.6" y="28.8" width="92.8" height="4" rx="0.8" ry="0.8"/></svg>