<svg xmlns="http://www.w3.org/2000/svg" viewBox="0 0 290.38 224"><defs><style>.a{fill:#282c2e;}.b{fill:#3d4041;}.c{fill:#e7e5e5;}.d{fill:#fff;}.e{fill:#ececec;}.f{fill:#ccc;}.g{fill:#959595;}.h{fill:#ccda7c;}.i{fill:#4074a9;}.j{fill:#a96840;}.k{fill:#d4d2d2;}.l{fill:#d08574;}.m{fill:#949494;}.n{fill:#4b5356;}.o{fill:#aeadad;}</style></defs><title>mac4</title><rect class="a" width="256" height="160" rx="7.2" ry="7.2"/><rect class="b" x="8" y="8" width="240" height="122.4"/><rect class="c" x="118.4" y="8" width="129.6" height="122.4"/><rect class="d" x="137.6" y="14.4" width="110.4" height="111.2"/><rect class="e" x="88" y="183.2" width="80" height="6.4"/><path class="f" d="M342,1424h36l4,23.2H338Z" transform="translate(-232 -1264)"/><path class="g" d="M301.6,1278.4h19.2a1.6,1.6,0,0,1,1.6,1.6h0a1.6,1.6,0,0,1-1.6,1.6H301.6a1.6,1.6,0,0,1-1.6-1.6h0A1.6,1.6,0,0,1,301.6,1278.4Z" transform="translate(-232 -1264)"/><path class="h" d="M287.2,1278.4H296a1.6,1.6,0,0,1,1.6,1.6h0a1.6,1.6,0,0,1-1.6,1.6h-8.8a1.6,1.6,0,0,1-1.6-1.6h0A1.6,1.6,0,0,1,287.2,1278.4Z" transform="translate(-232 -1264)"/><path class="i" d="M287.2,1284.8h19.2a1.6,1.6,0,0,1,1.6,1.6h0a1.6,1.6,0,0,1-1.6,1.6H287.2a1.6,1.6,0,0,1-1.6-1.6h0A1.6,1.6,0,0,1,287.2,1284.8Z" transform="translate(-232 -1264)"/><path class="g" d="M296,1291.2h44a1.6,1.6,0,0,1,1.6,1.6h0a1.6,1.6,0,0,1-1.6,1.6H296a1.6,1.6,0,0,1-1.6-1.6h0A1.6,1.6,0,0,1,296,1291.2Z" transform="translate(-232 -1264)"/><path class="h" d="M301.6,1297.6h15.2a1.6,1.6,0,0,1,1.6,1.6h0a1.6,1.6,0,0,1-1.6,1.6H301.6a1.6,1.6,0,0,1-1.6-1.6h0A1.6,1.6,0,0,1,301.6,1297.6Z" transform="translate(-232 -1264)"/><path class="i" d="M322.4,1297.6h19.2a1.6,1.6,0,0,1,1.6,1.6h0a1.6,1.6,0,0,1-1.6,1.6H322.4a1.6,1.6,0,0,1-1.6-1.6h0A1.6,1.6,0,0,1,322.4,1297.6Z" transform="translate(-232 -1264)"/><path class="j" d="M301.6,1304h25.6a1.6,1.6,0,0,1,1.6,1.6h0a1.6,1.6,0,0,1-1.6,1.6H301.6a1.6,1.6,0,0,1-1.6-1.6h0A1.6,1.6,0,0,1,301.6,1304Z" transform="translate(-232 -1264)"/><path class="i" d="M301.6,1310.4h32a1.6,1.6,0,0,1,1.6,1.6h0a1.6,1.6,0,0,1-1.6,1.6h-32a1.6,1.6,0,0,1-1.6-1.6h0A1.6,1.6,0,0,1,301.6,1310.4Z" transform="translate(-232 -1264)"/><path class="h" d="M304.8,1316.8H324a1.6,1.6,0,0,1,1.6,1.6h0a1.6,1.6,0,0,1-1.6,1.6H304.8a1.6,1.6,0,0,1-1.6-1.6h0A1.6,1.6,0,0,1,304.8,1316.8Z" transform="translate(-232 -1264)"/><path class="g" d="M329.6,1316.8h11.2a1.6,1.6,0,0,1,1.6,1.6h0a1.6,1.6,0,0,1-1.6,1.6H329.6a1.6,1.6,0,0,1-1.6-1.6h0A1.6,1.6,0,0,1,329.6,1316.8Z" transform="translate(-232 -1264)"/><path class="g" d="M301.6,1323.2h25.2a1.6,1.6,0,0,1,1.6,1.6h0a1.6,1.6,0,0,1-1.6,1.6H301.6a1.6,1.6,0,0,1-1.6-1.6h0A1.6,1.6,0,0,1,301.6,1323.2Z" transform="translate(-232 -1264)"/><path class="h" d="M287.2,1323.2H296a1.6,1.6,0,0,1,1.6,1.6h0a1.6,1.6,0,0,1-1.6,1.6h-8.8a1.6,1.6,0,0,1-1.6-1.6h0A1.6,1.6,0,0,1,287.2,1323.2Z" transform="translate(-232 -1264)"/><path class="i" d="M287.2,1329.6h19.2a1.6,1.6,0,0,1,1.6,1.6h0a1.6,1.6,0,0,1-1.6,1.6H287.2a1.6,1.6,0,0,1-1.6-1.6h0A1.6,1.6,0,0,1,287.2,1329.6Z" transform="translate(-232 -1264)"/><path class="g" d="M287.2,1336h29.6a1.6,1.6,0,0,1,1.6,1.6h0a1.6,1.6,0,0,1-1.6,1.6H287.2a1.6,1.6,0,0,1-1.6-1.6h0A1.6,1.6,0,0,1,287.2,1336Z" transform="translate(-232 -1264)"/><path class="j" d="M312,1329.6h30a1.6,1.6,0,0,1,1.6,1.6h0a1.6,1.6,0,0,1-1.6,1.6H312a1.6,1.6,0,0,1-1.6-1.6h0A1.6,1.6,0,0,1,312,1329.6Z" transform="translate(-232 -1264)"/><path class="i" d="M316.8,1342.4h20a1.6,1.6,0,0,1,1.6,1.6h0a1.6,1.6,0,0,1-1.6,1.6h-20a1.6,1.6,0,0,1-1.6-1.6h0A1.6,1.6,0,0,1,316.8,1342.4Z" transform="translate(-232 -1264)"/><path class="j" d="M320,1348.8h12.4a1.6,1.6,0,0,1,1.6,1.6h0a1.6,1.6,0,0,1-1.6,1.6H320a1.6,1.6,0,0,1-1.6-1.6h0A1.6,1.6,0,0,1,320,1348.8Z" transform="translate(-232 -1264)"/><path class="i" d="M301.6,1348.8h12.8a1.6,1.6,0,0,1,1.6,1.6h0a1.6,1.6,0,0,1-1.6,1.6H301.6a1.6,1.6,0,0,1-1.6-1.6h0A1.6,1.6,0,0,1,301.6,1348.8Z" transform="translate(-232 -1264)"/><path class="h" d="M296,1342.4h15.2a1.6,1.6,0,0,1,1.6,1.6h0a1.6,1.6,0,0,1-1.6,1.6H296a1.6,1.6,0,0,1-1.6-1.6h0A1.6,1.6,0,0,1,296,1342.4Z" transform="translate(-232 -1264)"/><path class="i" d="M301.6,1355.2h32.8a1.6,1.6,0,0,1,1.6,1.6h0a1.6,1.6,0,0,1-1.6,1.6H301.6a1.6,1.6,0,0,1-1.6-1.6h0A1.6,1.6,0,0,1,301.6,1355.2Z" transform="translate(-232 -1264)"/><path class="h" d="M304.8,1361.6H324a1.6,1.6,0,0,1,1.6,1.6h0a1.6,1.6,0,0,1-1.6,1.6H304.8a1.6,1.6,0,0,1-1.6-1.6h0A1.6,1.6,0,0,1,304.8,1361.6Z" transform="translate(-232 -1264)"/><path class="j" d="M329.6,1361.6h11.2a1.6,1.6,0,0,1,1.6,1.6h0a1.6,1.6,0,0,1-1.6,1.6H329.6a1.6,1.6,0,0,1-1.6-1.6h0A1.6,1.6,0,0,1,329.6,1361.6Z" transform="translate(-232 -1264)"/><rect class="k" x="137.6" y="8" width="110.4" height="6.4"/><rect class="l" x="151.2" y="18.4" width="84" height="18.8"/><rect class="m" x="151.2" y="41.6" width="20" height="18.4"/><rect class="m" x="151.2" y="64" width="20" height="18.8"/><rect class="m" x="215.2" y="87.2" width="20" height="18.8"/><rect class="k" x="175.2" y="41.6" width="45.2" height="1.6"/><rect class="k" x="175.2" y="44.8" width="40" height="1.6"/><rect class="k" x="175.2" y="48" width="45.2" height="1.6"/><rect class="k" x="175.2" y="51.2" width="19.2" height="1.6"/><rect class="k" x="175.2" y="54.4" width="45.2" height="1.6"/><rect class="k" x="175.2" y="57.6" width="10.4" height="1.6"/><rect class="k" x="196" y="51.2" width="19.2" height="1.6"/><rect class="k" x="175.2" y="64" width="45.2" height="1.6"/><rect class="k" x="175.2" y="67.2" width="28" height="1.6"/><rect class="k" x="175.2" y="70.4" width="45.2" height="1.6"/><rect class="k" x="187.6" y="76.8" width="29.2" height="1.6"/><rect class="k" x="175.2" y="73.6" width="32.4" height="1.6"/><rect class="k" x="175.2" y="80" width="20.8" height="1.6"/><rect class="k" x="175.2" y="76.8" width="10.4" height="1.6"/><rect class="k" x="204.8" y="67.2" width="10.4" height="1.6"/><rect class="k" x="190.4" y="87.2" width="20.8" height="1.6"/><rect class="k" x="161.2" y="90.4" width="50" height="1.6"/><rect class="k" x="161.2" y="93.6" width="50" height="1.6"/><rect class="k" x="195.2" y="96.8" width="16" height="1.6"/><rect class="k" x="184.8" y="100" width="26.4" height="1.6"/><rect class="k" x="161.2" y="103.2" width="50" height="1.6"/><rect class="k" x="165.6" y="96.8" width="27.6" height="1.6"/><rect class="k" x="167.6" y="87.2" width="20.8" height="1.6"/><rect class="k" x="169.6" y="100" width="13.2" height="1.6"/><rect class="k" x="137.6" y="125.6" width="110.4" height="4.8"/><rect class="n" x="47.2" y="8" width="0.8" height="122.4"/><circle class="d" cx="128" cy="4" r="0.8"/><rect class="d" x="140.8" y="9.6" width="4.8" height="3.2"/><rect class="o" x="148.8" y="9.6" width="3.2" height="3.2"/><rect class="d" x="152" y="9.6" width="83.2" height="3.2"/><rect class="o" x="235.2" y="9.6" width="10.4" height="3.2"/><path class="e" d="M488,1402.4v18a3.59,3.59,0,0,1-3.6,3.6H235.6a3.45,3.45,0,0,1-3.6-3.43V1402.4H488Z" transform="translate(-232 -1264)"/><path class="f" d="M506.38,1448a16,16,0,1,0,16,16A16.06,16.06,0,0,0,506.38,1448Zm0,8a8,8,0,1,1-8,8A7.94,7.94,0,0,1,506.38,1456Z" transform="translate(-232 -1264)"/><rect class="e" x="234.4" y="176" width="40" height="48"/><rect class="e" x="37.6" y="196" width="176" height="28"/><rect class="f" x="48.8" y="217.2" width="12" height="4"/><rect class="f" x="40.8" y="211.2" width="16" height="4"/><rect class="f" x="40.8" y="205.2" width="12" height="4"/><rect class="f" x="40.8" y="199.2" width="8" height="4"/><rect class="f" x="62.4" y="217.2" width="12" height="4"/><rect class="f" x="58.4" y="211.2" width="12" height="4"/><rect class="f" x="54.4" y="205.2" width="12" height="4"/><rect class="f" x="50.4" y="199.2" width="12" height="4"/><rect class="f" x="76" y="217.2" width="96" height="4"/><rect class="f" x="72" y="211.2" width="12" height="4"/><rect class="f" x="68" y="205.2" width="12" height="4"/><rect class="f" x="64" y="199.2" width="12" height="4"/><rect class="f" x="85.6" y="211.2" width="12" height="4"/><rect class="f" x="81.6" y="205.2" width="12" height="4"/><rect class="f" x="77.6" y="199.2" width="12" height="4"/><rect class="f" x="99.2" y="211.2" width="12" height="4"/><rect class="f" x="95.2" y="205.2" width="12" height="4"/><rect class="f" x="91.2" y="199.2" width="12" height="4"/><rect class="f" x="112.8" y="211.2" width="12" height="4"/><rect class="f" x="108.8" y="205.2" width="12" height="4"/><rect class="f" x="104.8" y="199.2" width="12" height="4"/><rect class="f" x="126.4" y="211.2" width="12" height="4"/><rect class="f" x="122.4" y="205.2" width="12" height="4"/><rect class="f" x="118.4" y="199.2" width="12" height="4"/><rect class="f" x="140" y="211.2" width="12" height="4"/><rect class="f" x="136" y="205.2" width="12" height="4"/><rect class="f" x="132" y="199.2" width="12" height="4"/><rect class="f" x="153.6" y="211.2" width="12" height="4"/><rect class="f" x="149.6" y="205.2" width="12" height="4"/><rect class="f" x="145.6" y="199.2" width="12" height="4"/><rect class="f" x="173.6" y="217.2" width="12" height="4"/><rect class="f" x="167.2" y="211.2" width="12" height="4"/><rect class="f" x="163.2" y="205.2" width="12" height="4"/><rect class="f" x="159.2" y="199.2" width="12" height="4"/><rect class="f" x="187.2" y="217.2" width="12" height="4"/><rect class="f" x="180.8" y="211.2" width="12" height="4"/><rect class="f" x="176.8" y="205.2" width="12" height="4"/><rect class="f" x="172.8" y="199.2" width="12" height="4"/><rect class="f" x="200.8" y="217.2" width="9.6" height="4"/><rect class="f" x="194.4" y="211.2" width="16" height="4"/><rect class="f" x="190.4" y="205.2" width="12" height="4"/><rect class="f" x="186.4" y="199.2" width="12" height="4"/><rect class="f" x="200" y="199.2" width="10.4" height="4"/><rect class="f" x="204" y="205.2" width="6.4" height="4"/><rect class="f" x="40.8" y="217.2" width="6" height="4"/><path class="f" d="M471.95,1471.5a1.67,1.67,0,0,1-.58-0.4c-0.66-.69-4.79-6.37-4.9-6.74a1.13,1.13,0,0,1,0-.76,81,81,0,0,1,4.95-6.77,1.42,1.42,0,0,1,2.13.09,1.45,1.45,0,0,1,.36,1.42,24.65,24.65,0,0,1-2,3c-1.07,1.44-1.95,2.64-1.95,2.66s0.88,1.23,1.95,2.66a24.57,24.57,0,0,1,2,3,1.57,1.57,0,0,1-2,1.87h0Zm4.52-.11a1.64,1.64,0,0,1-.9-1.19c0-.27.26-1.7,1.33-6.16,0.76-3.19,1.45-6,1.53-6.3a1.68,1.68,0,0,1,1-1.22,1.57,1.57,0,0,1,2.09,1.28,58,58,0,0,1-1.42,6.5c-0.81,3.39-1.54,6.28-1.61,6.42a1.5,1.5,0,0,1-.85.73,1.19,1.19,0,0,1-1.22-.06h0Zm7.75,0.11a1.88,1.88,0,0,1-1-1.17,1.91,1.91,0,0,1,0-.7,24.5,24.5,0,0,1,2-3c1.07-1.44,1.95-2.64,1.95-2.66s-0.88-1.23-1.95-2.66a25.32,25.32,0,0,1-2-3,1.45,1.45,0,0,1,.36-1.42,1.42,1.42,0,0,1,2.13-.09,81.58,81.58,0,0,1,4.95,6.77,1.13,1.13,0,0,1,0,.76c-0.11.36-4.24,6-4.9,6.74a1.44,1.44,0,0,1-1.55.4h0Z" transform="translate(-232 -1264)"/><rect class="n" x="14.4" y="14.4" width="26.4" height="2.4"/><rect class="n" x="14.4" y="20" width="21.6" height="2.4"/><rect class="n" x="14.4" y="25.6" width="16.8" height="2.4"/><rect class="n" x="14.4" y="31.2" width="21.6" height="2.4"/><rect class="n" x="14.4" y="36.8" width="26.4" height="2.4"/><rect class="n" x="14.4" y="42.4" width="24" height="2.4"/><rect class="n" x="14.4" y="48" width="21.6" height="2.4"/><rect class="n" x="14.4" y="53.6" width="0.8" height="24"/><rect class="n" x="21.6" y="53.6" width="16.8" height="2.4"/><rect class="n" x="21.6" y="59.2" width="20" height="2.4"/><rect class="n" x="21.6" y="64.8" width="16" height="2.4"/><rect class="n" x="21.6" y="70.4" width="17.6" height="2.4"/><rect class="n" x="21.6" y="76" width="20" height="2.4"/><rect class="n" x="14.4" y="76.8" width="5.6" height="0.8"/></svg>