<svg xmlns="http://www.w3.org/2000/svg" viewBox="0 0 284.92 215.45"><defs><style>.a{fill:#282c2e;}.b{fill:#3d4041;}.c{fill:#ececec;}.d{fill:#ccc;}.e{fill:#fff;}.f{fill:#4c5051;}.g{fill:#e2412b;}.h{fill:none;stroke:#f69696;stroke-dasharray:1 2;}.i{fill:#f69696;}.j{fill:#8a8f91;}.k{fill:#4074a9;}.l{fill:#ef813a;}.m{fill:#a360a7;}.n{fill:#80b146;}.o{fill:#e06043;}.p{fill:#7f5e7d;}.q{fill:#695e7f;}.r{fill:#7f5e5e;}</style></defs><title>mac5</title><rect class="a" width="256" height="160" rx="7.2" ry="7.2"/><rect class="b" x="8" y="8" width="240" height="122.4"/><rect class="c" x="88" y="183.2" width="80" height="6.4"/><path class="d" d="M342,1824h36l4,23.2H338Z" transform="translate(-232 -1664)"/><circle class="e" cx="128" cy="4" r="0.8"/><path class="c" d="M488,1802.4v18a3.59,3.59,0,0,1-3.6,3.6H235.6a3.45,3.45,0,0,1-3.6-3.43V1802.4H488Z" transform="translate(-232 -1664)"/><rect class="b" x="8" y="8" width="240" height="122.4"/><circle class="e" cx="127.8" cy="3.8" r="0.6"/><rect class="f" x="8" y="8" width="240" height="16"/><rect class="f" x="8" y="20" width="9.6" height="110.4"/><rect class="f" x="204.8" y="24" width="43.2" height="106.4"/><rect class="a" x="9.6" y="24" width="6.4" height="6.4"/><rect class="d" x="11.2" y="105.6" width="4.8" height="4.8"/><rect class="g" x="9.6" y="104" width="4.8" height="4.8"/><rect class="b" x="206.4" y="24" width="40" height="5.6"/><rect class="g" x="54.8" y="27.2" width="112" height="96"/><path class="e" d="M331.1,1739.17a11.63,11.63,0,1,0,11.63-11.52,11.58,11.58,0,0,0-11.63,11.52m-10.91.31c0-12,9.76-21.71,22.77-21.71a24,24,0,0,1,10.09,2.18l8.8-12.75,3.72,2.47-8.66,12.55a21.22,21.22,0,0,1,8.7,17.27c0,12-9.76,21.71-22.76,21.71a24,24,0,0,1-10.67-2.44l-8.45,12.44-3.72-2.47,8.38-12.34a21.24,21.24,0,0,1-8.19-16.91" transform="translate(-232 -1664)"/><path class="h" d="M319.2,1706.8H366v64.8" transform="translate(-232 -1664)"/><path class="h" d="M365.6,1771.6h-46v-64" transform="translate(-232 -1664)"/><rect class="a" x="194.4" y="183.2" width="88" height="20"/><rect class="i" x="83.2" y="38.4" width="2.4" height="2.4"/><rect class="b" x="202.4" y="185.6" width="72" height="11.2"/><ellipse class="b" cx="238.4" cy="200" rx="8" ry="1.6"/><path class="j" d="M516,1802.31c2,1.18,1.16,6.54-7.29,21.18s-21.16,32.85-23.21,31.66,7.36-21.3,15.82-35.93,12.64-18.09,14.69-16.9h0Z" transform="translate(-232 -1664)"/><path class="d" d="M516,1802.3c-1.39-.8-3.76.54-7.77,6l6.45,3.72c2.74-6.21,2.71-8.94,1.33-9.74h0ZM487.82,1846c-2.1,5.07-3.17,8.67-2.34,9.15s3.42-2.25,6.75-6.6l-4.41-2.55h0Z" transform="translate(-232 -1664)"/><rect class="k" x="255.7" y="1793.68" width="4.04" height="50.55" transform="translate(-409.97 -1629.75) rotate(-5.65)"/><rect class="l" x="262.57" y="1786.9" width="4" height="50.43" transform="translate(-307.18 -1651.42) rotate(-2.39)"/><rect class="m" x="257.82" y="1813.97" width="50.35" height="4.29" transform="translate(-1785.55 225.8) rotate(-83.44)"/><rect class="n" x="250.89" y="1816.41" width="50.63" height="4.31" transform="translate(-1785.71 341.3) rotate(-87.19)"/><path class="o" d="M252.4,1819.2h36l-4,48h-28Z" transform="translate(-232 -1664)"/><rect class="l" x="118.61" y="199.2" width="66.19" height="4"/><rect class="n" x="348.98" y="1873.08" width="66.19" height="4" transform="translate(-365.56 -1631.75) rotate(-4.11)"/><rect class="b" x="9.6" y="32" width="6.4" height="6.4"/><rect class="b" x="9.6" y="40" width="6.4" height="6.4"/><rect class="b" x="9.6" y="48" width="6.4" height="6.4"/><rect class="b" x="9.6" y="56" width="6.4" height="6.4"/><rect class="b" x="9.6" y="64" width="6.4" height="6.4"/><rect class="b" x="9.6" y="72" width="6.4" height="6.4"/><rect class="b" x="9.6" y="80" width="6.4" height="6.4"/><rect class="b" x="9.6" y="88" width="6.4" height="6.4"/><rect class="b" x="9.6" y="96" width="6.4" height="6.4"/><rect class="b" x="9.6" y="16" width="6.4" height="6.4"/><rect class="b" x="17.6" y="16" width="6.4" height="6.4"/><rect class="b" x="24" y="16" width="6.4" height="6.4"/><rect class="b" x="32" y="16" width="6.4" height="6.4"/><rect class="b" x="38.4" y="16" width="6.4" height="6.4"/><rect class="b" x="46.4" y="16" width="6.4" height="6.4"/><rect class="b" x="54.4" y="16" width="6.4" height="6.4"/><rect class="b" x="60.8" y="16" width="6.4" height="6.4"/><rect class="b" x="68.8" y="16" width="6.4" height="6.4"/><rect class="b" x="76.8" y="16" width="6.4" height="6.4"/><rect class="b" x="83.2" y="16" width="6.4" height="6.4"/><rect class="b" x="91.2" y="16" width="6.4" height="6.4"/><rect class="b" x="97.6" y="16" width="6.4" height="6.4"/><rect class="i" x="136" y="38.4" width="2.4" height="2.4"/><rect class="i" x="109.6" y="38.4" width="2.4" height="2.4"/><rect class="i" x="83.2" y="73.6" width="2.4" height="2.4"/><rect class="i" x="136" y="73.6" width="2.4" height="2.4"/><rect class="i" x="83.2" y="109.6" width="2.4" height="2.4"/><rect class="i" x="136" y="109.6" width="2.4" height="2.4"/><rect class="i" x="109.6" y="109.6" width="2.4" height="2.4"/><rect class="b" x="206.4" y="31.2" width="40" height="5.6"/><rect class="b" x="206.4" y="38.4" width="40" height="5.6"/><rect class="p" x="206.4" y="45.6" width="40" height="24"/><rect class="q" x="206.4" y="71.2" width="40" height="24"/><rect class="r" x="206.4" y="96.8" width="40" height="24"/></svg>