<svg xmlns="http://www.w3.org/2000/svg" viewBox="0 0 243.33 291.6"><defs><style>.a{fill:#f5acac;}.b{fill:#da7a89;}.c{fill:#ffe5e5;}.d{fill:#9f6161;}.e{fill:#f7bcbc;}.f{fill:#f47c7c;}.g{fill:none;stroke:#f7bcbc;stroke-width:2.2px;}</style></defs><title>robot</title><path class="a" d="M461.06,2121.58a3.78,3.78,0,0,0-1.3.28l-0.16.08c-1.29.24-13.95,2.9-13.95,2.9l4.43,23.22,13.82-3a3.8,3.8,0,0,0,1.51-.27c3.47-1.42,5-7.69,3.45-14h0c-1.35-5.44-4.61-9.27-7.8-9.16h0Z" transform="translate(-245.09 -2035.95)"/><path class="b" d="M413.15,2077.88l-161,27.62,11.75,94.86,25.7,9.42,166.79-22.71-11.75-94.86Zm-8.05,142.35-116.79,5.23c5.64,31.11,8.77,36.05,11.62,71.6l23.62-.23v0.09L435.39,2297l-0.72-63Zm-92.56,24.42h0Z" transform="translate(-245.09 -2035.95)"/><path class="a" d="M429.7,2223.24a3.31,3.31,0,0,0-1.64.42l-0.19.13c-1.64.35-9.84,2.37-9.84,2.37l10.46,42.69,9.65-2.62a3.33,3.33,0,0,0,1.92-.39c4.24-2.35,5-13.69,1.69-25.34-2.85-10-7.89-17.25-12-17.26h0Z" transform="translate(-245.09 -2035.95)"/><path class="c" d="M312.53,2244.66L434.67,2234l-29.58-13.77-116.79,5.23Z" transform="translate(-245.09 -2035.95)"/><path class="d" d="M350.88,2186.44c5.47,18.67,2,27.29.63,42.21-0.87,7.2,18.84,8.59,20.28,1.81,3.76-15.81,3.74-29,2.1-47.64Z" transform="translate(-245.09 -2035.95)"/><path class="e" d="M274.48,2122.12l15.1,87.66,166.79-22.71-11.75-94.86Z" transform="translate(-245.09 -2035.95)"/><path class="e" d="M312.53,2244.66L434.67,2234l0.72,63-111.83-.09c-3.94-26.09-8.58-31.76-11-52.28h0Z" transform="translate(-245.09 -2035.95)"/><path class="c" d="M274.48,2122.12l-22.36-16.62,161-27.62,31.46,14.33Z" transform="translate(-245.09 -2035.95)"/><path class="f" d="M274.48,2122.12l15.1,87.66-25.7-9.42-11.75-94.86Z" transform="translate(-245.09 -2035.95)"/><path class="f" d="M312.53,2244.66l-24.23-19.19c5.64,31.11,8.77,36.05,11.62,71.6l23.66-.23c-2.49-23.58-4.42-29.52-11.05-52.18h0Z" transform="translate(-245.09 -2035.95)"/><path class="a" d="M265.35,2152a3.78,3.78,0,0,0-1.3.28l-0.16.08c-1.29.24-13.95,2.9-13.95,2.9l4.43,23.22,13.82-3a3.8,3.8,0,0,0,1.51-.27c3.46-1.42,5-7.69,3.45-14h0c-1.34-5.44-4.61-9.28-7.8-9.16h0Z" transform="translate(-245.09 -2035.95)"/><path class="f" d="M249.15,2155.37c3.46-1.42,7.54,2.56,9.1,8.88s0,12.59-3.45,14-7.54-2.56-9.1-8.88S245.68,2156.79,249.15,2155.37Z" transform="translate(-245.09 -2035.95)"/><path class="e" d="M373.23,2092.37a1.54,1.54,0,0,0-.19-1.17l-0.11-.14c-0.11-1.17-1.86-12.58-1.86-12.58L324,2085.64l2.15,12.45a1.57,1.57,0,0,0,.11,1.37c1.84,3,13.79,3.65,26.71,1.37h0c11.12-2,19.59-5.5,20.25-8.45h0Z" transform="translate(-245.09 -2035.95)"/><path class="c" d="M371.05,2077.75c1.84,3-7.14,7.34-20.06,9.62s-24.87,1.67-26.71-1.37,7.14-7.34,20.06-9.62S369.21,2074.71,371.05,2077.75Z" transform="translate(-245.09 -2035.95)"/><path class="e" d="M297.71,2237a3.34,3.34,0,0,0-1.66.36l-0.2.12c-1.65.28-9.93,2-9.93,2l8.73,43.07,9.74-2.23a3.36,3.36,0,0,0,1.93-.31c4.34-2.17,5.55-13.48,2.71-25.25-2.45-10.14-7.19-17.55-11.33-17.73h0Z" transform="translate(-245.09 -2035.95)"/><path class="f" d="M284.9,2239.59c4.34-2.17,10.15,5.6,13,17.38s1.63,23.08-2.71,25.25-10.15-5.6-13-17.38S280.56,2241.76,284.9,2239.59Z" transform="translate(-245.09 -2035.95)"/><path class="d" d="M285.19,2252c-87.8,58.84,45.72,142.71,62.45-15.6L328,2235.23c-8.93,111.51-90,68.43-36,36.85,3.29-2.11,1-19.62-6.8-20.07h0Z" transform="translate(-245.09 -2035.95)"/><path class="g" d="M332.89,2083.9c-7.05-17.48-19.73-38.4-.21-44.59l8.42-1.94c19.3-2.93,17.84,14,20.49,41" transform="translate(-245.09 -2035.95)"/><path class="g" d="M343.18,2079.53l-9.72-17.16" transform="translate(-245.09 -2035.95)"/><path class="g" d="M348.77,2078.28l2.42-16.35" transform="translate(-245.09 -2035.95)"/><circle class="c" cx="330.06" cy="2051.93" r="2.38" transform="translate(-1980.53 246.35) rotate(-87.23)"/><circle class="c" cx="348.55" cy="2047.92" r="5.21" transform="translate(-1958.94 261) rotate(-87.23)"/><path class="f" d="M306.21,2181L315,2238l47.66-2.21-2.25-59.61-16.4-.68,3.46,41.93-18.95,1.37L324.58,2178Z" transform="translate(-245.09 -2035.95)"/><path class="d" d="M437.94,2231c2.57,6.52,5,13.17,5.77,21.22,29.23,7.06,30.51,38.12,21.52,40.45-10.82,2.81-26.49-14.39-32.87-69.22l-18.59,3c5.5,63.42,30.5,95.84,56.48,85.89,30.74-11.78,24.07-72.85-32.31-81.34h0Z" transform="translate(-245.09 -2035.95)"/><path class="f" d="M381.42,2177.14c0.85,0.18,13.61,52.58,13.61,52.58l54.3-7.91L443,2165.93l-18.78,1.36,6.59,39.09L409.29,2210l-7.06-37.89Z" transform="translate(-245.09 -2035.95)"/><path class="d" d="M385.91,2162.8c-13.5,3.12-16.57,3.69-31.44,6.3,1.74,5.46,4.84,9.13,8.51,11.06a15.35,15.35,0,0,0,11.51,1C381.89,2179,387.93,2171.57,385.91,2162.8Z" transform="translate(-245.09 -2035.95)"/><path class="c" d="M442.22,2160.28l-19.37,1.13,1.51,6.5,18.7-1.62ZM401,2165.92l-21.15,6.16,1.52,5.24,20.75-5.09Zm28.77,34.27-21.57,4.51,1.13,5.43,21.61-3.68Z" transform="translate(-245.09 -2035.95)"/><path class="f" d="M365.49,2172.65a11.9,11.9,0,0,0-7.92,2.73,15.77,15.77,0,0,0,5.41,4.78,15.35,15.35,0,0,0,11.51,1,16.92,16.92,0,0,0,2.37-.91,13.82,13.82,0,0,0-6.61-6.5,12.37,12.37,0,0,0-4.76-1.1h0Z" transform="translate(-245.09 -2035.95)"/><path class="c" d="M360.09,2172.36l-16.78,1.4,0.76,5.41,16.85-.81Zm-35.91,3.09-18.46,3.34,1.22,7.57,18.37-3.2Zm22.75,35.6-19.13,1.84,0.31,6.27,19.66-1.32Z" transform="translate(-245.09 -2035.95)"/><circle class="a" cx="310.65" cy="2146.76" r="25.77" transform="translate(-1385.81 -1501.21) rotate(-33.76)"/><circle class="c" cx="310.74" cy="2149.99" r="20.8" transform="translate(-2028.4 -463.86) rotate(-66.35)"/><circle class="d" cx="310.89" cy="2152.1" r="15.02" transform="translate(-563.11 -1965.35) rotate(-8.59)"/><circle class="c" cx="317.26" cy="2146.19" r="4.33" transform="translate(-562.16 -1964.46) rotate(-8.59)"/><circle class="c" cx="300.87" cy="2152.88" r="1.97" transform="translate(-563.34 -1966.84) rotate(-8.59)"/><circle class="a" cx="418.33" cy="2127.34" r="25.77" transform="translate(-1336.24 -1464.9) rotate(-33)"/><circle class="c" cx="418.38" cy="2130.58" r="20.8" transform="translate(-1915.01 -499.85) rotate(-63)"/><circle class="d" cx="416.9" cy="2132.6" r="15.02" transform="translate(-559.01 -1949.73) rotate(-8.59)"/><circle class="c" cx="423.28" cy="2126.69" r="4.33" transform="translate(-558.05 -1948.85) rotate(-8.59)"/><circle class="c" cx="406.88" cy="2133.38" r="1.97" transform="translate(-559.24 -1951.22) rotate(-8.59)"/></svg>